<?xml version="1.0" standalone="no"?>
<!DOCTYPE svg PUBLIC "-//W3C//DTD SVG 1.1//EN" "http://www.w3.org/Graphics/SVG/1.1/DTD/svg11.dtd" >
<svg xmlns="http://www.w3.org/2000/svg">
<metadata>
This is a custom SVG webfont generated by Font Squirrel.
Copyright   : Copyright c 2012 by Tore Rosbo at 1508 AS All rights reserved
Designer    : Tore Rosbo at 1508 AS
Foundry     : Tore Rosbo at1508 AS
</metadata>
<defs>
<font id="CBSOLDRegular" horiz-adv-x="839" >
<font-face units-per-em="2048" ascent="1632" descent="-416" />
<missing-glyph horiz-adv-x="409" />
<glyph unicode=" "  horiz-adv-x="409" />
<glyph unicode="&#x09;" horiz-adv-x="409" />
<glyph unicode="&#xa0;" horiz-adv-x="409" />
<glyph unicode="!" horiz-adv-x="696" d="M205 1434h287l-41 -1086h-205zM246 0v150h205v-150h-205z" />
<glyph unicode="&#x22;" horiz-adv-x="612" d="M86 1081v246q0 61 29.5 90t72.5 29q45 0 75 -34t30 -89q0 -37 -19.5 -70.5t-49 -64.5t-66.5 -57.5t-72 -49.5zM346 1081v246q0 61 30 90t73 29q45 0 74.5 -34t29.5 -89q0 -37 -19.5 -70.5t-49 -64.5t-66.5 -57.5t-72 -49.5z" />
<glyph unicode="#" d="M20 0l226 578h-154v28h164l100 254h-264v29h275l213 545h34l-213 -545h170l213 545h35l-213 -545h142v-29h-154l-98 -254h252v-28h-265l-225 -578h-33l226 578h-172l-226 -578h-33zM291 606h170l100 254h-172z" />
<glyph unicode="$" horiz-adv-x="1103" d="M92 1028v141q0 70 18.5 122t67.5 86t134 50.5t218 18.5v192h33v-192q66 0 135.5 -6t124.5 -13q66 -8 125 -16v-416h-196l-95 416l-94 6v-504l256 -168q49 -31 83 -60.5t56.5 -65t32.5 -80.5t10 -109v-145q0 -150 -102 -220.5t-336 -76.5v-203h-33v203h-14q-76 0 -148.5 6 t-131.5 16q-68 8 -134 23v450h197l94 -458q33 -4 68 -6.5t69 -2.5v537l-221 149q-47 33 -87 62t-68.5 64.5t-45 83.5t-16.5 116zM383 1161q0 -43 5 -71.5t19.5 -52t39 -44t63.5 -45.5l20 -14v483q-90 -2 -118.5 -38t-28.5 -115v-103zM563 16q86 4 117 40t31 118v84 q0 51 -3 87t-13.5 62.5t-31 48t-55.5 46.5l-45 30v-516z" />
<glyph unicode="%" horiz-adv-x="1024" d="M102 979v375q0 49 39 70.5t154 21.5t153.5 -21.5t38.5 -70.5v-375q0 -49 -38.5 -71.5t-153.5 -22.5t-154 22.5t-39 71.5zM225 0l559 1434h35l-561 -1434h-33zM236 956q0 -25 9 -34t50 -9q39 0 48 10.5t9 32.5v416q0 23 -8 34t-49 11t-50 -11t-9 -34v-416zM557 82v375 q0 49 39 70.5t154 21.5t153.5 -21.5t38.5 -70.5v-375q0 -49 -39 -71.5t-153 -22.5q-115 0 -154 22.5t-39 71.5zM690 59q0 -25 9.5 -34t50.5 -9q39 0 48 10.5t9 32.5v416q0 23 -8 34t-49 11t-50.5 -11t-9.5 -34v-416z" />
<glyph unicode="&#x26;" horiz-adv-x="1294" d="M45 485q0 37 17.5 74t58.5 78t109.5 84t170.5 92q4 0 11 4l10 5l14 7l-80 170q-23 47 -37 94.5t-14 108.5v72q0 84 82 128t266 44q154 0 213.5 -32t59.5 -116v-110q0 -80 -39 -127t-115 -88l-43 -23l379 -805q16 -35 34.5 -52t47.5 -17q23 0 49.5 9t67.5 28l10 -27 q-119 -57 -205 -81.5t-145 -24.5q-74 0 -118 35.5t-71 86.5l-37 -16q-119 -57 -204.5 -81.5t-145.5 -24.5q-78 0 -120 34.5t-68 87.5l-133 287q-25 49 -25 96zM297 672q0 -23 16 -60l219 -467q16 -37 35 -53t47 -16q23 0 49.5 9t67.5 28l35 16l-317 674q-16 -10 -25 -12 q-6 -2 -10 -5q-66 -31 -91.5 -57t-25.5 -57zM610 1264q0 -35 6.5 -61.5t16.5 -45.5l84 -182l37 20q84 45 112.5 86t28.5 103v131q0 47 -38 73.5t-116 26.5t-104.5 -22.5t-26.5 -75.5v-53z" />
<glyph unicode="'" horiz-adv-x="346" d="M86 1081v246q0 61 29.5 90t72.5 29q45 0 75 -34t30 -89q0 -37 -19.5 -70.5t-49 -64.5t-66.5 -57.5t-72 -49.5z" />
<glyph unicode="(" horiz-adv-x="747" d="M102 395v666q0 78 18.5 148.5t72 122.5t146.5 83t245 31v-29q-104 0 -135 -27.5t-31 -86.5v-1172q0 -66 31.5 -90.5t134.5 -24.5v-28q-152 0 -245 35.5t-146.5 94t-72 131t-18.5 146.5z" />
<glyph unicode=")" horiz-adv-x="747" d="M164 -12v28q102 0 134 25t32 90v1172q0 59 -31 86.5t-135 27.5v29q150 0 244 -31t147 -83t71.5 -122.5t18.5 -148.5v-666q0 -74 -18.5 -146.5t-71.5 -131t-147 -94t-244 -35.5z" />
<glyph unicode="*" d="M129 956l260 150l-260 151l14 27l258 -149v299h33v-301l262 151l15 -27l-260 -151l260 -150l-15 -26l-262 151v-303h-33v301l-258 -149z" />
<glyph unicode="+" d="M92 614v29h309v315h33v-315h314v-29h-314v-311h-33v311h-309z" />
<glyph unicode="," horiz-adv-x="354" d="M53 106q0 51 34 86t85 35t89 -32.5t38 -98.5q0 -86 -47 -153.5t-146 -85.5v32q29 12 47.5 37t18.5 62q-51 0 -85 33.5t-34 84.5z" />
<glyph unicode="-" horiz-adv-x="675" d="M92 614v29h492v-29h-492z" />
<glyph unicode="." horiz-adv-x="346" d="M53 106q0 51 34 86t85 35t86 -34.5t35 -86.5q0 -51 -35 -84.5t-86 -33.5t-85 33.5t-34 84.5z" />
<glyph unicode="/" horiz-adv-x="634" d="M20 0l560 1434h34l-561 -1434h-33z" />
<glyph unicode="0" horiz-adv-x="1179" d="M143 231v973q0 53 13.5 97.5t59.5 77t134 50t240 17.5q150 0 239 -17.5t135 -50t59 -77t13 -97.5v-973q0 -53 -13 -98t-59 -76.5t-135.5 -50t-238.5 -18.5q-152 0 -240 18.5t-134 50t-59.5 76.5t-13.5 98zM438 131q0 -33 4 -55.5t19.5 -35.5t46.5 -18.5t82 -5.5t80.5 6.5 t45 19.5t19.5 35.5t4 53.5v1172q0 31 -4 52t-18.5 34.5t-45 20.5t-81.5 7q-53 0 -83 -7t-45.5 -20.5t-19.5 -35t-4 -51.5v-1172z" />
<glyph unicode="1" horiz-adv-x="753" d="M102 0v29h142v1208h-15l-100 -98l-20 22l282 273h139v-1405h142v-29h-570z" />
<glyph unicode="2" horiz-adv-x="1046" d="M82 0v100l508 803q49 78 64.5 138.5t15.5 132.5v90q0 43 -6.5 72.5t-21.5 48t-44 25.5t-74 7q-90 0 -137 -8l-82 -358h-170v360q55 8 117 16q53 6 118.5 12.5t133.5 6.5q156 0 247 -17.5t137 -49t59.5 -79t13.5 -106.5v-49q0 -61 -9.5 -106.5t-31 -82t-54 -71.5 t-82.5 -80l-516 -473l-41 -66h738v-266h-883z" />
<glyph unicode="3" horiz-adv-x="1050" d="M82 295v117h33v-113q0 -66 11 -118t45 -89t97.5 -56.5t167.5 -19.5q82 0 130 27t48 90v449q0 94 -41 121.5t-116 27.5h-84v29h104q33 0 57.5 12t40 31.5t22.5 43t7 48.5v348q0 102 -27.5 138t-117.5 36q-74 0 -123 -6l-84 -360h-170v356q51 10 111 18q49 8 113.5 14.5 t131.5 6.5q156 0 247 -17.5t137 -49t59.5 -79t13.5 -106.5v-98q0 -53 -4 -92t-19.5 -71t-49.5 -58.5t-91 -55.5l-80 -39v-24q143 -12 199.5 -69.5t56.5 -176.5v-262q0 -74 -24.5 -124t-79.5 -80t-145.5 -43t-221.5 -13q-117 0 -187.5 23.5t-107.5 64.5t-48 97t-11 122z" />
<glyph unicode="4" horiz-adv-x="1046" d="M41 379v76l561 979h201v-1026h141v-29h-141v-350h141v-29h-428v379h-475zM70 408h446v755h-33l-413 -717v-38zM375 0v29h141v-29h-141z" />
<glyph unicode="5" horiz-adv-x="987" d="M82 295v117h31v-115q0 -66 11 -117t45 -88t98.5 -56.5t168.5 -19.5q133 0 133 129v529q0 94 -33.5 141t-132.5 47q-74 0 -126 -17.5t-87 -37.5q-39 -25 -65 -55h-33l144 682h628l-51 -267h-602l-68 -329l25 -11q37 25 98.5 45.5t157.5 20.5q133 0 219 -18.5t135 -57.5 t67.5 -101.5t18.5 -150.5v-256q0 -74 -17.5 -133t-64.5 -101t-131 -64.5t-215 -22.5q-117 0 -187.5 23.5t-107.5 64.5t-48 97t-11 122z" />
<glyph unicode="6" horiz-adv-x="1077" d="M102 240v295q0 70 11.5 132t36 120.5t61.5 117t88 123.5l336 426h41l-223 -602l18 -8q25 12 60.5 20t82.5 8q113 0 182.5 -19t109.5 -53t54.5 -80t14.5 -99v-381q0 -53 -15.5 -99.5t-61.5 -80t-132 -53t-227 -19.5t-227.5 19.5t-132.5 53t-61.5 80t-15.5 99.5zM397 111 q0 -59 31 -77t111 -18t109.5 20.5t29.5 74.5v639q0 51 -21.5 70.5t-81.5 19.5q-74 0 -126 -54.5t-52 -152.5v-522z" />
<glyph unicode="7" horiz-adv-x="954" d="M82 1167v267h821v-72l-352 -1362h-307v100l538 936l33 131h-733z" />
<glyph unicode="8" horiz-adv-x="1185" d="M143 233v115q0 47 6.5 86t23.5 72t49 61.5t85 57.5l127 67l-55 39q-37 25 -75 55.5t-69.5 70.5t-51 92t-19.5 120v154q0 55 17.5 96t65.5 69.5t133 43t218 14.5q129 0 211 -13.5t129 -41t64.5 -69.5t17.5 -99v-72q0 -74 -32 -126t-132 -105l-133 -70l125 -82 q39 -27 74.5 -58.5t62.5 -72.5t42 -92t15 -115v-184q0 -55 -17 -102.5t-66.5 -82t-137.5 -54t-229 -19.5q-152 0 -241 18.5t-135 50t-59.5 76.5t-13.5 100zM434 139q0 -74 34 -98.5t124 -24.5q88 0 124 25t36 98v160q0 86 -18.5 141.5t-84.5 102.5l-186 129q-29 -25 -29 -62 v-471zM455 1141q0 -37 5 -62.5t18.5 -47t36 -41t56.5 -42.5l119 -78q39 20 39 56v379q0 66 -28.5 89t-102.5 23q-80 0 -111.5 -23.5t-31.5 -88.5v-164z" />
<glyph unicode="9" horiz-adv-x="1077" d="M102 852v344q0 53 15.5 98t61.5 79t132 53.5t228 19.5q141 0 227 -19.5t132 -53.5t61.5 -79t15.5 -98v-256q0 -72 -11.5 -133.5t-36 -119.5t-61.5 -116.5t-88 -124.5l-362 -466h-41l248 643l-21 6q-25 -12 -58.5 -19.5t-80.5 -7.5q-113 0 -182.5 19.5t-109.5 53.5 t-54.5 79t-14.5 98zM399 725q0 -51 21.5 -70.5t81.5 -19.5q72 0 123 52t55 144v492q0 59 -31 76.5t-110 17.5q-80 0 -110 -20.5t-30 -73.5v-598z" />
<glyph unicode=":" horiz-adv-x="346" d="M53 106q0 51 34 86t85 35t86 -34.5t35 -86.5q0 -51 -35 -84.5t-86 -33.5t-85 33.5t-34 84.5zM53 977q0 51 34 86t85 35t86 -35t35 -86t-35 -85t-86 -34t-85 34t-34 85z" />
<glyph unicode=";" horiz-adv-x="346" d="M53 106q0 51 34 86t85 35t89 -32.5t38 -98.5v-10q-4 -82 -51 -146.5t-142 -82.5v32q29 12 47.5 37t18.5 62q-51 0 -85 33.5t-34 84.5zM53 977q0 51 34 86t85 35t86 -35t35 -86t-35 -85t-86 -34t-85 34t-34 85z" />
<glyph unicode="&#x3c;" d="M92 594v53l656 328v-33l-623 -311v-23l623 -329v-33z" />
<glyph unicode="=" d="M92 455v28h656v-28h-656zM92 737v29h656v-29h-656z" />
<glyph unicode="&#x3e;" d="M92 246v33l623 329v23l-623 311v33l656 -328v-53z" />
<glyph unicode="?" horiz-adv-x="1079" d="M164 1057v334q53 14 115 26q53 10 118.5 19.5t132.5 9.5q119 0 202 -17.5t135.5 -53.5t75 -93t22.5 -137q0 -68 -27 -126t-75 -111.5t-115.5 -103.5t-149.5 -104q-55 -35 -91 -66.5t-57.5 -65t-29.5 -72.5t-8 -90h-33q0 57 6 105t26.5 95t56.5 98.5t95 114.5 q39 43 62.5 84t37 86t17.5 98.5t4 120.5q0 100 -25.5 154.5t-107.5 54.5q-49 0 -87 -5t-67 -11l-78 -344h-155zM279 106q0 51 33.5 86t84.5 35t86 -34.5t35 -86.5q0 -51 -34.5 -84.5t-86.5 -33.5q-51 0 -84.5 33.5t-33.5 84.5z" />
<glyph unicode="@" horiz-adv-x="1253" d="M123 319v519q0 111 41 180t110.5 108t161.5 53.5t195 14.5q111 0 202 -14.5t157.5 -53.5t103 -108.5t36.5 -179.5v-428q0 -106 -36.5 -157.5t-124.5 -51.5h-264v35h-9q-35 -27 -73.5 -34t-92.5 -7q-49 0 -80.5 12t-50 32.5t-24.5 47t-6 57.5v481q0 31 6 56.5t24.5 44 t50 29t80.5 10.5q53 0 90 -7.5t76 -33.5h9v34h247v-28h-80v-701h97q82 4 105.5 51.5t23.5 129.5v428q0 104 -36 168.5t-98.5 100.5t-147.5 47t-185 11q-92 0 -178 -11t-151.5 -47t-105.5 -100.5t-40 -168.5v-519q0 -109 41 -173t107.5 -98t151.5 -44t175 -10v-31 q-109 0 -201 12.5t-160.5 51.5t-107.5 108t-39 184zM543 272q0 -47 41 -47q29 0 61.5 13.5t54.5 40.5v602q-23 27 -55.5 39t-60.5 12q-18 0 -29.5 -10.5t-11.5 -38.5v-611z" />
<glyph unicode="A" horiz-adv-x="1126" d="M-61 0v29h157l260 1405h406l266 -1405h139v-29h-620v29h145l-88 491h-385l-90 -491h133v-29h-323zM225 549h373l-156 856h-61z" />
<glyph unicode="B" horiz-adv-x="1236" d="M41 0v29h162v1376h-162v29h819q123 0 193.5 -49.5t70.5 -157.5v-260q0 -86 -32.5 -135.5t-106.5 -71.5v-21q150 -43 150 -186v-326q0 -106 -74 -166.5t-201 -60.5h-819zM518 29h158q25 0 49.5 3t42.5 14t29.5 30.5t11.5 50.5v516q0 51 -40 69.5t-85 18.5h-166v-702z M518 760h166q47 0 83 19.5t36 82.5v445q0 31 -11.5 50t-30 30.5t-42 14.5t-47.5 3h-154v-645z" />
<glyph unicode="C" horiz-adv-x="1017" d="M102 207v1020q0 45 14.5 85t62.5 69.5t137.5 47t236.5 17.5q68 0 138.5 -6t129.5 -13l135 -16v-416h-196l-94 414q-47 8 -121 8t-100.5 -22.5t-26.5 -69.5v-1216q0 -47 26.5 -70t106.5 -23q104 0 175 19.5t112 56.5t58 89t17 118v195h33v-199q0 -66 -17.5 -122t-62.5 -97 t-121.5 -64.5t-193.5 -23.5q-145 0 -233.5 17.5t-136.5 47t-63.5 69.5t-15.5 85z" />
<glyph unicode="D" horiz-adv-x="1226" d="M41 0v29h162v1376h-162v29h819q135 0 199.5 -76t64.5 -197v-889q0 -123 -64.5 -197.5t-199.5 -74.5h-819zM518 29h174q66 0 91.5 24.5t25.5 87.5v1153q0 61 -25.5 86t-91.5 25h-174v-1376z" />
<glyph unicode="E" horiz-adv-x="1150" d="M41 0v29h162v1376h-162v29h1008v-439h-197l-92 410h-242v-645h268v-29h-268v-702h242l92 454h197v-483h-1008z" />
<glyph unicode="F" horiz-adv-x="1099" d="M41 0v29h162v1376h-162v29h987v-439h-197l-92 410h-221v-645h289v-29h-289v-702h182v-29h-659z" />
<glyph unicode="G" horiz-adv-x="1103" d="M102 260v961q0 55 20.5 97t74 70.5t145.5 43t233 14.5q84 0 158 -6t129 -13q66 -8 121 -16v-416h-197l-94 414q-47 8 -117 8q-98 0 -127.5 -32.5t-29.5 -94.5v-1130q0 -37 4 -63.5t18.5 -45t43 -27t79.5 -8.5q8 0 24.5 1t35 2t36 2.5t27.5 3.5v665h-158v29h473v-686 q-29 -8 -81 -16.5t-115.5 -14.5t-133 -10t-136.5 -4q-141 0 -227.5 19.5t-131.5 55t-59.5 86t-14.5 111.5z" />
<glyph unicode="H" horiz-adv-x="1357" d="M41 0v29h162v1376h-162v29h588v-29h-111v-645h322v645h-111v29h588v-29h-162v-1376h162v-29h-588v29h111v702h-322v-702h111v-29h-588z" />
<glyph unicode="I" horiz-adv-x="720" d="M41 0v29h162v1376h-162v29h639v-29h-162v-1376h162v-29h-639z" />
<glyph unicode="J" horiz-adv-x="1026" d="M41 33v450h197l94 -465q12 -2 24 -2h27q47 0 75.5 9.5t44 26t20.5 39t5 50.5v1264h-202v29h680v-29h-162v-1172q0 -53 -22.5 -98t-76 -77.5t-141.5 -51t-221 -18.5q-76 0 -137.5 6t-108.5 16q-53 9 -96 23z" />
<glyph unicode="K" horiz-adv-x="1275" d="M41 0v29h162v1376h-162v29h639v-29h-162v-645h84l377 645h-145v29h323v-29h-141l-377 -645h289l270 -731h119v-29h-389q-33 0 -47.5 13.5t-24.5 41.5l-258 676h-80v-702h121v-29h-598z" />
<glyph unicode="L" horiz-adv-x="1099" d="M41 0v29h162v1376h-162v29h680v-29h-203v-1376h221l92 454h197v-483h-987z" />
<glyph unicode="M" horiz-adv-x="1566" d="M0 0v29h162v1376h-162v29h551l201 -1405h41l178 1405h555v-29h-162v-1376h162v-29h-471v1405h-54l-176 -1405h-368l-211 1405h-51v-1376h141v-29h-336z" />
<glyph unicode="N" horiz-adv-x="1177" d="M0 0v29h162v1376h-162v29h563l365 -1405h55v1376h-141v29h336v-29h-162v-1405h-404l-358 1405h-59v-1376h141v-29h-336z" />
<glyph unicode="O" horiz-adv-x="1167" d="M102 231v973q0 53 18.5 97.5t72 77t146.5 50t245 17.5q150 0 244 -17.5t147 -50t71.5 -77t18.5 -97.5v-973q0 -53 -18.5 -98t-71.5 -76.5t-147.5 -50t-243.5 -18.5q-152 0 -245 18.5t-146.5 50t-72 76.5t-18.5 98zM418 131q0 -66 31.5 -90.5t134.5 -24.5q51 0 82.5 6.5 t50 19.5t25 35.5t6.5 53.5v1172q0 59 -30 86.5t-134 27.5t-135 -27.5t-31 -86.5v-1172z" />
<glyph unicode="P" horiz-adv-x="1193" d="M41 0v29h162v1376h-162v29h807q123 0 193.5 -51.5t70.5 -174.5v-303q0 -113 -68.5 -184.5t-179.5 -71.5h-346v-620h203v-29h-680zM518 678h156q47 0 83 19.5t36 82.5v527q0 31 -11.5 50t-30 30.5t-42 14.5t-47.5 3h-144v-727z" />
<glyph unicode="Q" horiz-adv-x="1155" d="M96 231v973q0 53 18.5 97.5t72 77t146.5 50t245 17.5q150 0 243.5 -17.5t147 -50t72 -77t18.5 -97.5v-973q0 -53 -18.5 -97t-68.5 -75.5t-141.5 -50t-236.5 -20.5v-162h-33v162q-145 2 -236.5 20.5t-141.5 50t-68.5 75.5t-18.5 97zM412 131q0 -63 28.5 -88t120.5 -27v164 h33v-164q92 2 119.5 28t27.5 87v1172q0 59 -29.5 86.5t-133.5 27.5t-135 -27.5t-31 -86.5v-1172z" />
<glyph unicode="R" horiz-adv-x="1263" d="M41 0v29h162v-29h-162zM41 1405v29h809q55 0 104.5 -10.5t84 -35t55 -68.5t20.5 -112v-250q0 -125 -64.5 -190.5t-183.5 -65.5h-182l12 -45q16 -51 60 -53h250l143 -575h115v-29h-361q-41 0 -61.5 19.5t-30.5 52.5l-160 630h-133v-673h121v-29h-436v1405h-162zM518 731 h156q47 0 83 19.5t36 83.5v473q0 31 -11.5 50t-30 30.5t-42 14.5t-47.5 3h-144v-674z" />
<glyph unicode="S" horiz-adv-x="1103" d="M92 1028v141q0 74 19.5 126.5t72 86t143.5 49t232 15.5q68 0 136.5 -6t125.5 -13q66 -8 127 -16v-416h-196l-95 416q-27 4 -55.5 5t-62.5 1q-47 0 -78 -9t-48.5 -27.5t-23.5 -47t-6 -69.5v-103q0 -43 5 -71.5t19.5 -52t39 -44t63.5 -45.5l309 -203q49 -31 83 -60.5 t56.5 -65t32.5 -80.5t10 -109v-145q0 -158 -112.5 -227.5t-372.5 -69.5q-76 0 -148.5 6t-131.5 16q-68 8 -134 23v450h197l94 -458q35 -6 71 -7.5t73 -1.5q102 0 138 35t36 123v84q0 51 -3 87t-13.5 62.5t-31 48t-55.5 46.5l-299 200q-47 33 -87 62t-68.5 64.5t-45 83.5 t-16.5 116z" />
<glyph unicode="T" horiz-adv-x="1298" d="M41 995v439h1216v-439h-196l-92 410h-162v-1376h203v-29h-721v29h203v1376h-162l-92 -410h-197z" />
<glyph unicode="U" horiz-adv-x="1116" d="M20 1405v29h619v-29h-143v-1253q0 -29 7 -53.5t26.5 -43t54 -29t90.5 -10.5q152 0 224.5 57.5t72.5 180.5v1151h-144v29h330v-29h-153v-1133q0 -68 -15.5 -120t-53.5 -88.5t-101.5 -56t-159.5 -19.5q-154 0 -250 18.5t-150.5 50t-74 76.5t-19.5 98v1174h-160z" />
<glyph unicode="V" horiz-adv-x="1120" d="M-41 1405v29h641v-29h-147l249 -1376h56l231 1376h-131v29h324v-29h-158l-240 -1405h-399l-287 1405h-139z" />
<glyph unicode="W" horiz-adv-x="1669" d="M-41 1405v29h1231v-29h-148l230 -1376h55l213 1376h-133v29h324v-29h-158l-219 -1405h-400l-112 635l-99 -635h-399l-248 1405h-137zM432 1405l230 -1376h55l108 704l-118 672h-275z" />
<glyph unicode="X" horiz-adv-x="1103" d="M-41 1405v29h487l222 -572h47l207 543h-129v29h317v-29h-152l-247 -653l278 -723h156v-29h-479l-260 672h-31l-219 -643h131v-29h-318v29h150l252 733l-250 643h-162z" />
<glyph unicode="Y" horiz-adv-x="1087" d="M-41 1405v29h637v-29h-139l245 -660h29l232 660h-132v29h318v-29h-150l-251 -721v-655h161v-29h-639v29h162v546l-311 830h-162z" />
<glyph unicode="Z" horiz-adv-x="1114" d="M82 0v100l600 1262v43h-287l-92 -410h-197v439h926v-72l-612 -1294v-39h323l103 434h186v-463h-950z" />
<glyph unicode="[" horiz-adv-x="763" d="M123 0v1434h477v-29h-162v-1376h162v-29h-477z" />
<glyph unicode="\" horiz-adv-x="634" d="M20 1434h35l559 -1434h-32z" />
<glyph unicode="]" horiz-adv-x="763" d="M164 0v29h162v1376h-162v29h477v-1434h-477z" />
<glyph unicode="^" horiz-adv-x="770" d="M20 778l349 656h53l328 -656h-35l-312 623h-18l-330 -623h-35z" />
<glyph unicode="_" horiz-adv-x="778" d="M0 -102h778v-29h-778v29z" />
<glyph unicode="`" horiz-adv-x="667" d="M143 1294v27h287l94 -86v-27h-286z" />
<glyph unicode="a" horiz-adv-x="1046" d="M82 225v111q0 70 31.5 115t111.5 86l391 200v240q0 49 -21.5 70.5t-96.5 21.5q-37 0 -69 -2t-60 -6l-60 -289h-166v289q55 10 115 18q51 6 114.5 12.5t125.5 6.5q127 0 206.5 -13.5t123.5 -39t60.5 -65.5t16.5 -91v-860h142v-29h-426v55h-13q-47 -39 -96 -53t-131 -14 q-160 0 -229.5 59t-69.5 178zM369 127q0 -53 20.5 -78.5t75.5 -25.5q35 0 76 20t75 63v596l-151 -79q-61 -35 -78.5 -82t-17.5 -111v-303z" />
<glyph unicode="b" horiz-adv-x="1081" d="M0 0v29h141v1376h-141v29h141h287v-404h8q61 43 124 55.5t149 12.5q84 0 136 -17.5t81.5 -48.5t41 -72.5t11.5 -91.5v-630q0 -49 -11.5 -95.5t-41 -80t-81.5 -54t-136 -20.5q-86 0 -151.5 13t-121.5 54h-12v-55h-424zM428 111q35 -43 90 -64.5t103 -21.5q70 0 69 75v879 q0 47 -17.5 64.5t-51.5 17.5q-47 0 -102.5 -21.5t-90.5 -64.5v-864z" />
<glyph unicode="c" horiz-adv-x="886" d="M102 217v672q0 51 16.5 91t60.5 65.5t124 39t207 13.5q61 0 118 -5l101 -10q51 -6 96 -12v-299h-166l-61 293q-20 2 -40.5 3t-47.5 1q-39 0 -62.5 -5t-36 -16.5t-16.5 -29t-4 -41.5v-848q0 -53 24.5 -83t108.5 -30q82 0 134.5 17.5t82 45t41 63.5t11.5 73v135h30v-139 q0 -43 -14 -84t-49 -71.5t-92.5 -49t-143.5 -18.5q-141 0 -225 17.5t-128 48t-56.5 72.5t-12.5 91z" />
<glyph unicode="d" horiz-adv-x="1081" d="M102 238v630q0 49 11.5 91t41 73t82 48.5t136.5 17.5q86 0 148.5 -12.5t123.5 -55.5h8v404h287h141v-29h-141v-1376h141v-29h-424v55h-12q-55 -41 -120.5 -54t-151.5 -13q-84 0 -136.5 20.5t-82 54t-41 80t-11.5 95.5zM391 100q0 -76 70 -75q47 0 102 21.5t90 64.5v864 q-35 43 -90 64.5t-102 21.5q-35 0 -52.5 -17.5t-17.5 -64.5v-879z" />
<glyph unicode="e" horiz-adv-x="987" d="M102 217v672q0 51 17.5 91t63.5 65.5t123 39t198 13.5q119 0 196.5 -13.5t123.5 -39t63.5 -65.5t17.5 -91v-318h-514v-444q0 -27 5 -47.5t20.5 -34.5t46.5 -21.5t82 -7.5q150 0 229.5 51.5t79.5 168.5v114h31v-119q0 -129 -91.5 -186t-248.5 -57q-150 0 -237 17.5 t-133 48t-59.5 72.5t-13.5 91zM391 600h225v377q0 49 -18 70.5t-94 21.5q-39 0 -61.5 -5t-34 -16.5t-14.5 -29t-3 -41.5v-377z" />
<glyph unicode="f" horiz-adv-x="610" d="M20 1057v28h142v27q0 92 27.5 148.5t80 90t127 51t166.5 32.5v-29q-68 -27 -91 -75t-23 -122v-123h141v-28h-141v-963q0 -86 -44.5 -144.5t-106.5 -95t-131 -55t-120 -26.5v28q68 27 91.5 75t23.5 122v1059h-142z" />
<glyph unicode="g" horiz-adv-x="1003" d="M102 231q0 80 33 141.5t66 94.5q-55 31 -75 76t-20 102v225q0 51 16.5 93.5t61.5 72t124 46t206 16.5q106 0 180 -13l135 156l25 -20l-123 -144q111 -25 151 -79t40 -128v-225q0 -51 -16.5 -93t-61.5 -72.5t-125 -47t-205 -16.5q-100 0 -170 10t-117 29q-8 -6 -21 -30 t-13 -71q0 -27 13 -43t31.5 -25.5t41 -12.5t40.5 -3h345q63 0 111 -18.5t81 -51t49.5 -74.5t16.5 -91q0 -104 -55.5 -170t-147.5 -92v28q29 14 50.5 43t21.5 74t-30 63.5t-85 18.5h-361q-61 0 -102 21.5t-65.5 55.5t-35 74.5t-10.5 79.5zM393 532q0 -51 21.5 -69.5 t99.5 -18.5q76 0 97.5 18.5t21.5 69.5v445q0 51 -21.5 71.5t-97.5 20.5q-78 0 -99.5 -21.5t-21.5 -70.5v-445z" />
<glyph unicode="h" horiz-adv-x="1120" d="M0 0v29h141v1376h-141v29h141h287v-404h8q70 41 129.5 54.5t143.5 13.5t136 -16.5t81.5 -45t41 -66.5t11.5 -81v-860h141v-29h-430v979q0 41 -15.5 61.5t-53.5 20.5q-47 0 -95.5 -19.5t-97.5 -62.5v-950h141v-29h-569z" />
<glyph unicode="i" horiz-adv-x="569" d="M0 0v29h141v1028h-141v28h428v-1056h141v-29h-569zM141 1208v113h287v-113h-287z" />
<glyph unicode="j" horiz-adv-x="530" d="M0 1057v28h428v-999q0 -86 -43 -143.5t-104.5 -92t-130 -52t-119.5 -25.5v28q68 27 89 71t21 118v1067h-141zM141 1208v113h287v-113h-287z" />
<glyph unicode="k" horiz-adv-x="1019" d="M0 0v29h141v-29h-141zM0 1405v29h428v-834h57l291 457h-102v28h282v-28h-143l-291 -457h277l178 -571h84v-29h-332q-33 0 -47 13.5t-25 41.5l-165 516h-64v-542h141v-29h-428v1405h-141z" />
<glyph unicode="l" horiz-adv-x="569" d="M0 0v29h141v1376h-141v29h428v-1405h141v-29h-569z" />
<glyph unicode="m" horiz-adv-x="1671" d="M0 0v29h141v1028h-141v28h424v-55h12q70 41 129.5 54.5t143.5 13.5q104 0 159.5 -23.5t81.5 -64.5q35 25 66 41t64.5 26t76.5 15.5t103 5.5q86 0 138 -16.5t81.5 -45t40 -66.5t10.5 -81v-860h141v-29h-430v979q0 41 -15.5 61.5t-54.5 20.5q-55 0 -101 -18.5t-105 -65.5 q14 -37 14 -88v-860h141v-29h-430v979q0 41 -15.5 61.5t-53.5 20.5q-47 0 -94.5 -19.5t-98.5 -62.5v-950h141v-29h-569z" />
<glyph unicode="n" horiz-adv-x="1120" d="M0 0v29h141v1028h-141v28h424v-55h12q70 41 129.5 54.5t143.5 13.5q86 0 138 -16.5t81.5 -45t40 -66.5t10.5 -81v-860h141v-29h-430v979q0 41 -15.5 61.5t-53.5 20.5q-47 0 -95.5 -19.5t-97.5 -62.5v-950h141v-29h-569z" />
<glyph unicode="o" horiz-adv-x="1060" d="M102 217v653q0 51 15.5 93.5t61.5 72t130 46t221 16.5t221.5 -16.5t130.5 -46t61 -71.5t15 -94v-653q0 -51 -15 -93t-61 -73t-130 -47t-222 -16q-137 0 -221 16t-130 47t-61.5 73t-15.5 93zM389 104q0 -51 27.5 -69.5t113.5 -18.5q84 0 112 18.5t28 69.5v873 q0 49 -28 70.5t-112 21.5q-86 0 -113.5 -21.5t-27.5 -70.5v-873z" />
<glyph unicode="p" horiz-adv-x="1081" d="M0 -186h141v1243h-141v28h424v-55h12q55 41 121 54.5t152 13.5q84 0 136 -20.5t81.5 -54.5t41 -80t11.5 -95v-631q0 -49 -11.5 -91t-41 -72.5t-81.5 -48t-136 -17.5q-86 0 -148.5 12t-124.5 55h-8v-270h-428v29zM428 111q35 -43 90 -64.5t103 -21.5q35 0 52 17t17 64v879 q0 76 -69 76q-47 0 -102.5 -21.5t-90.5 -64.5v-864z" />
<glyph unicode="q" horiz-adv-x="1081" d="M102 217v631q0 49 11.5 95t41 80t82 54.5t136.5 20.5q86 0 151.5 -13.5t120.5 -54.5h12v55h424v-28h-141v-1243h141v-29h-428v270h-8q-61 -43 -123.5 -55t-148.5 -12q-84 0 -136.5 17.5t-82 48t-41 72.5t-11.5 91zM391 106q0 -47 17.5 -64t52.5 -17q47 0 102 21.5 t90 64.5v864q-35 43 -90 64.5t-102 21.5q-70 0 -70 -76v-879z" />
<glyph unicode="r" horiz-adv-x="874" d="M0 0v29h141v1028h-141v28h424v-55h10q20 16 53 31q29 10 69 20.5t95 10.5q45 0 79 -3.5t56 -7.5q27 -6 48 -10v-362h-160l-74 350q-47 -4 -95 -22.5t-77 -57.5v-950h141v-29h-569z" />
<glyph unicode="s" horiz-adv-x="878" d="M61 840q0 72 16.5 121t59.5 79.5t117 44t188 13.5q51 0 106.5 -5.5t102.5 -9.5l107 -12v-299h-166l-60 289q-25 4 -51 6t-55 2q-37 0 -60.5 -5t-36 -19.5t-17.5 -42t-5 -70.5q0 -37 1 -61.5t9.5 -43t24.5 -35t45 -36.5l289 -207q29 -20 54.5 -43t45 -53.5t30.5 -74.5 t11 -108q0 -92 -17.5 -147t-61.5 -86t-121.5 -40t-198.5 -9q-57 0 -118.5 6t-115.5 14q-61 8 -118 23v313h161l70 -319q33 -4 63.5 -6.5t57.5 -2.5q53 0 85 6.5t47 22.5t19 42t4 67q0 37 -2 62.5t-10 44t-21.5 33.5t-37.5 34l-297 215q-35 25 -61.5 48t-45 55t-28 78 t-9.5 116z" />
<glyph unicode="t" horiz-adv-x="620" d="M0 1057v28h121q45 0 73.5 19.5t45.5 91.5l26 158h162v-269h141v-28h-141v-959q0 -35 13.5 -51t56.5 -16q33 0 57.5 8t52.5 20l13 -24q-43 -20 -91.5 -33.5t-105.5 -13.5q-88 0 -143.5 14t-86 41t-42 65.5t-11.5 88.5v860h-141z" />
<glyph unicode="u" horiz-adv-x="1107" d="M0 1057v28h430v-983q0 -29 13.5 -52t50.5 -23q47 0 92 18t94 61v951h-135v28h563v-28h-141v-1028h141v-29h-424v55h-12q-35 -20 -64.5 -33.5t-58.5 -20.5t-61.5 -10t-75.5 -3q-88 0 -141.5 16t-82 45t-38 67t-9.5 81v860h-141z" />
<glyph unicode="v" horiz-adv-x="929" d="M-41 1057v28h541v-28h-119l184 -1028h68l168 1028h-113v28h283v-28h-135l-177 -1057h-370l-199 1057h-131z" />
<glyph unicode="w" horiz-adv-x="1470" d="M-41 1057v28h1081v-28h-118l184 -1028h68l167 1028h-112v28h282v-28h-135l-176 -1057h-371l-90 477l-80 -477h-370l-199 1057h-131zM381 1057l184 -1028h68l88 542l-90 486h-250z" />
<glyph unicode="x" horiz-adv-x="940" d="M-41 1057v28h512v-28h-94l215 -445h12l174 445h-108v28h282v-28h-137l-197 -504l254 -524h109v-29h-512v29h90l-209 434h-12l-178 -434h110v-29h-282v29h135l201 489l-258 539h-107z" />
<glyph unicode="y" horiz-adv-x="931" d="M-41 1057v28h541v-28h-117l215 -918h18l187 918h-113v28h283v-28h-135l-217 -1057q-16 -78 -38 -121t-50.5 -63.5t-64.5 -25.5t-81 -5h-178v215h149l50 -186q37 0 64.5 6t49 27.5t39 64.5t33.5 117l16 82h-282l-236 946h-133z" />
<glyph unicode="z" horiz-adv-x="888" d="M51 0v82l467 958v17h-231l-60 -285h-166v313h762v-49l-473 -970v-37h250l66 315h161v-344h-776z" />
<glyph unicode="{" horiz-adv-x="811" d="M0 717v28h20q90 2 118 30t28 85v344q0 53 18.5 97.5t71.5 77t146.5 50t244.5 17.5v-29q-104 0 -135 -27.5t-31 -86.5v-345q0 -78 -42 -134t-171 -85v-16q63 -14 105.5 -35.5t66 -50.5t32.5 -62.5t9 -70.5v-373q0 -59 31 -87t135 -28v-28q-152 0 -245 17.5t-146 50 t-71.5 76.5t-18.5 97v373q0 57 -27.5 84t-118.5 31h-20z" />
<glyph unicode="|" horiz-adv-x="442" d="M205 -215v1649h33v-1649h-33z" />
<glyph unicode="}" horiz-adv-x="811" d="M164 -12v28q104 0 135 28t31 87v373q0 37 9 70.5t32.5 62.5t64.5 50.5t107 35.5v16q-129 29 -171 85.5t-42 133.5v345q0 59 -31 86.5t-135 27.5v29q150 0 244 -17.5t147 -50t71.5 -77t18.5 -97.5v-344q0 -59 31 -87t135 -28v-28q-104 0 -135 -27.5t-31 -87.5v-373 q0 -53 -18.5 -97t-71.5 -76.5t-147 -50t-244 -17.5z" />
<glyph unicode="~" horiz-adv-x="778" d="M29 614l22 33q27 39 60.5 60.5t76.5 21.5q18 0 35 -4l33 -8l225 -72q18 -6 34.5 -8t33.5 -2q41 2 65.5 20.5t44.5 46.5l13 17h37l-25 -33q-29 -39 -59.5 -59.5t-75.5 -20.5q-16 0 -32.5 2t-37.5 8l-229 72q-41 12 -62 12q-39 -2 -67.5 -21.5t-44.5 -47.5l-10 -17h-37z " />
<glyph unicode="&#xa1;" horiz-adv-x="696" d="M205 -215l41 1085h205l41 -1085h-287zM246 1069v150h205v-150h-205z" />
<glyph unicode="&#xa2;" horiz-adv-x="886" d="M102 217v672q0 51 15.5 90t59.5 64.5t122 40t203 14.5v202h33v-202q57 -2 109 -6.5t93 -8.5q47 -6 88 -12v-299h-166l-61 293l-63 4v-1053q78 0 128 17.5t78.5 45t40 63.5t11.5 73v135h30v-139q0 -43 -14 -83t-48 -70.5t-89.5 -49t-136.5 -20.5v-203h-33v203 q-135 2 -214 19.5t-120 48t-53.5 71.5t-12.5 90zM391 129q0 -49 19.5 -79t91.5 -34v1053q-72 -2 -91.5 -23.5t-19.5 -68.5v-848z" />
<glyph unicode="&#xa3;" horiz-adv-x="1099" d="M41 0v29h162v665h-162v29h162v457q0 61 23.5 110t77.5 84t144.5 53.5t223.5 18.5q74 0 139.5 -6t112.5 -15q55 -8 104 -20v-410h-197l-96 420q-16 2 -32 2h-31q-94 0 -124 -33.5t-30 -91.5v-569h195v-29h-195v-665h221l92 454h197v-483h-987z" />
<glyph unicode="&#xa5;" horiz-adv-x="1087" d="M-41 1405v29h637v-29h-139l245 -660h29l232 660h-132v29h318v-29h-150l-231 -660h182v-28h-192l-10 -33v-221h202v-29h-202v-405h161v-29h-639v29h162v405h-203v29h203v112l-53 142h-150v28h138l-246 660h-162z" />
<glyph unicode="&#xa6;" horiz-adv-x="442" d="M205 -215v743h33v-743h-33zM205 731v703h33v-703h-33z" />
<glyph unicode="&#xa7;" horiz-adv-x="919" d="M82 594q0 43 8 75.5t30.5 63.5t62.5 59.5t106 63.5v12l-35 27q-33 25 -63.5 52.5t-55 62t-39 80t-14.5 108.5q0 68 16.5 115t59.5 76.5t116.5 43t188.5 13.5q51 0 106.5 -5t102.5 -9l106 -13v-299h-166l-59 289q-25 4 -51.5 6t-55.5 2q-41 0 -64.5 -5t-35.5 -19.5 t-15 -42t-3 -70.5q0 -37 6 -62.5t18.5 -46t31.5 -39t48 -38.5l256 -172q37 -25 65.5 -48.5t47 -52t28 -66.5t9.5 -96q0 -55 -10.5 -97t-37 -74.5t-72.5 -61.5t-116 -59v-13l86 -57q29 -20 56.5 -43t48 -53.5t33 -70.5t12.5 -95q0 -92 -16.5 -144.5t-62.5 -79t-127 -32.5 t-210 -6q-57 0 -113.5 6t-101.5 14q-53 8 -101 23v313h162l70 -319q23 -4 48.5 -6.5t51.5 -2.5q55 0 86 5.5t46.5 18.5t19.5 37.5t4 65.5q0 33 -8 57.5t-21.5 44t-33 37t-44.5 35.5l-233 168q-45 33 -77 62.5t-53.5 65.5t-31.5 82t-10 114zM307 696q0 -45 9.5 -77.5 t25.5 -59.5t38.5 -48.5t51.5 -41.5l119 -80q31 23 37 45.5t6 77.5q0 49 -8 81t-21.5 55.5t-33 42t-44.5 36.5l-141 100q-23 -23 -31 -47.5t-8 -83.5z" />
<glyph unicode="&#xa8;" horiz-adv-x="983" d="M205 1208v113h225v-113h-225zM553 1208v113h225v-113h-225z" />
<glyph unicode="&#xa9;" horiz-adv-x="1267" d="M123 319v519q0 111 41 180t110.5 108t161.5 53.5t195 14.5q104 0 197.5 -14.5t164 -53.5t111.5 -108.5t41 -179.5v-519q0 -115 -40 -184t-108.5 -108t-163 -51.5t-200.5 -12.5q-109 0 -201 12.5t-161.5 51.5t-108.5 108t-39 184zM156 319q0 -109 41 -173t108.5 -98 t152.5 -44t175 -10q88 0 174 10t153.5 44t109.5 98.5t42 172.5v519q0 104 -40 168.5t-106.5 100.5t-153.5 47t-181 11q-92 0 -178 -11t-151.5 -47t-105.5 -100.5t-40 -168.5v-519zM401 301v547q0 25 8.5 46t34 37.5t73.5 26t128 9.5q35 0 74 -3t69 -8q37 -6 72 -10v-223 h-104l-49 211q-10 2 -27.5 3t-38.5 1q-41 0 -55.5 -12.5t-14.5 -36.5v-629q0 -25 14.5 -36t57.5 -11q57 0 92 9t55.5 26.5t27.5 43t7 58.5v105h31v-107q0 -72 -44 -118t-169 -46q-78 0 -125 9.5t-73.5 24.5t-35 36.5t-8.5 46.5z" />
<glyph unicode="&#xaa;" horiz-adv-x="630" d="M102 1008v57q0 33 15.5 55.5t56.5 40.5q16 8 49 25.5t66 34.5q37 20 80 43v102q0 27 -10.5 37t-51.5 10q-16 0 -31.5 -1t-29.5 -3l-25 -127h-88v141l57 9q25 4 55.5 7t61.5 3q63 0 103.5 -6t63 -18.5t30.5 -32t8 -46.5v-413h76v-29h-215v27h-8q-23 -18 -48.5 -25.5 t-66.5 -7.5q-80 0 -114 29t-34 88zM250 975q0 -27 9 -40t34 -13q16 0 37.5 10t38.5 33v266q-14 -6 -27 -14q-12 -6 -25.5 -13.5t-23.5 -13.5q-29 -16 -36 -40t-7 -54v-121z" />
<glyph unicode="&#xab;" horiz-adv-x="860" d="M92 598v45l365 410v-45l-332 -373v-31l332 -391v-45zM403 598v45l365 410v-45l-332 -373v-31l332 -391v-45z" />
<glyph unicode="&#xac;" d="M92 614v29h656v-340h-33v311h-623z" />
<glyph unicode="&#xad;" horiz-adv-x="675" d="M92 614v29h492v-29h-492z" />
<glyph unicode="&#xae;" horiz-adv-x="1267" d="M123 319v519q0 111 41 180t110.5 108t161.5 53.5t195 14.5q104 0 197.5 -14.5t164 -53.5t111.5 -108.5t41 -179.5v-519q0 -115 -40 -184t-108.5 -108t-163 -51.5t-200.5 -12.5q-109 0 -201 12.5t-161.5 51.5t-108.5 108t-39 184zM156 319q0 -109 41 -173t108.5 -98 t152.5 -44t175 -10q88 0 174 10t153.5 44t109.5 98.5t42 172.5v519q0 104 -40 168.5t-106.5 100.5t-153.5 47t-181 11q-92 0 -178 -11t-151.5 -47t-105.5 -100.5t-40 -168.5v-519zM311 201v28h95v-28h-95zM311 940v29h443q59 0 100 -23.5t41 -95.5v-135q0 -137 -133 -137 h-84l6 -25q8 -29 39 -29h113l73 -295h74v-28h-201q-23 0 -34 10t-17 29l-86 338h-70v-349h64v-28h-233v739h-95zM575 606h82q27 0 46.5 10.5t19.5 45.5v225q0 35 -22.5 44t-49.5 9h-76v-334z" />
<glyph unicode="&#xaf;" horiz-adv-x="983" d="M143 1208v113h697v-113h-697z" />
<glyph unicode="&#xb0;" horiz-adv-x="479" d="M86 1206v152q0 29 14.5 46t38 25.5t50 10.5t51.5 2t51 -2t50 -10.5t38 -26t14 -45.5v-152q0 -29 -14 -46t-38 -25.5t-50.5 -10.5t-50.5 -2q-25 0 -51.5 2t-50 10.5t-38 25.5t-14.5 46zM117 1206q0 -20 13 -31.5t31.5 -16.5t40 -6t38.5 -1q18 0 39.5 1t40 6t30.5 16.5 t12 31.5v152q0 20 -12 31.5t-30.5 16.5t-40 6t-39.5 1q-16 0 -38 -1t-40.5 -6t-31.5 -16.5t-13 -31.5v-152z" />
<glyph unicode="&#xb1;" d="M92 205v28h656v-28h-656zM92 614v29h309v315h33v-315h314v-29h-314v-204h-33v204h-309z" />
<glyph unicode="&#xb2;" horiz-adv-x="577" d="M102 897v37l211 307q16 29 22.5 51.5t6.5 50.5v15q0 35 -10 47t-45 12q-18 0 -32.5 -1t-25.5 -3l-24 -117h-76v138q25 2 49 6q23 2 49.5 4t53.5 2q117 0 154.5 -24.5t37.5 -69.5v-21q0 -47 -15.5 -71.5t-51.5 -55.5l-213 -178l-15 -25h297v-104h-373z" />
<glyph unicode="&#xb3;" horiz-adv-x="555" d="M102 1004v45h31v-43q0 -45 23.5 -69t95.5 -24q31 0 49 10.5t18 34.5v148q0 39 -15 48t-44 9h-35v29h47q23 2 33 18.5t10 32.5v109q0 39 -10 52t-45 13h-29q-12 0 -22 -2l-29 -123h-78v138l50 8q23 4 48 6t52 2q59 0 98 -6t60.5 -18.5t30 -31t8.5 -40.5v-39 q0 -41 -9.5 -62.5t-54.5 -42.5l-23 -10v-8q49 -8 70 -33t21 -68v-102q0 -55 -49.5 -77.5t-151.5 -22.5q-90 0 -120 34t-30 85z" />
<glyph unicode="&#xb4;" horiz-adv-x="667" d="M143 1208v27l95 86h286v-27l-94 -86h-287z" />
<glyph unicode="&#xb5;" horiz-adv-x="1107" d="M0 -186h141v1243h-141v28h428v-1067q84 0 138.5 18.5t113.5 69.5v951h-135v28h563v-28h-141v-1028h141v-29h-424v55h-12q-35 -20 -62.5 -32.5t-55.5 -20.5t-58.5 -11t-67.5 -3v-174h141v-29h-569v29z" />
<glyph unicode="&#x3bc;" horiz-adv-x="1107" d="M0 -186h141v1243h-141v28h428v-1067q84 0 138.5 18.5t113.5 69.5v951h-135v28h563v-28h-141v-1028h141v-29h-424v55h-12q-35 -20 -62.5 -32.5t-55.5 -20.5t-58.5 -11t-67.5 -3v-174h141v-29h-569v29z" />
<glyph unicode="&#xb6;" horiz-adv-x="1484" d="M41 905v303q0 123 70.5 174.5t193.5 51.5h1159v-29h-161v-1405h-312v1405h-108v-1405h-310v649h-284q-111 0 -179.5 71.5t-68.5 184.5zM360 780q0 -63 36 -82.5t83 -19.5h94v727h-81q-25 0 -48.5 -3t-42 -14.5t-30 -31t-11.5 -49.5v-527z" />
<glyph unicode="&#xb7;" horiz-adv-x="346" d="M53 618q0 51 34 86t85 35t86 -34.5t35 -86.5q0 -51 -35 -84.5t-86 -33.5t-85 33.5t-34 84.5z" />
<glyph unicode="&#xb8;" horiz-adv-x="587" d="M154 -215l8 29h53q18 0 29.5 12t11.5 47t-11.5 45t-29.5 10h-20l20 72h31l-13 -43h101q45 0 72.5 -14.5t27.5 -53.5v-32q0 -39 -27.5 -55.5t-72.5 -16.5h-180z" />
<glyph unicode="&#xb9;" horiz-adv-x="479" d="M102 897v29h74v407h-10l-45 -45l-19 21l129 125h74v-508h72v-29h-275z" />
<glyph unicode="&#xba;" horiz-adv-x="630" d="M102 1004v325q0 27 8.5 47.5t31 34.5t65.5 22.5t110 8.5q68 0 109 -8.5t64.5 -22.5t30.5 -34.5t7 -47.5v-325q0 -25 -7 -46.5t-30.5 -36t-64.5 -22.5t-109 -8t-110.5 8t-65 22.5t-31 36t-8.5 46.5zM252 965q0 -27 12 -36t53 -9q37 0 50.5 9t13.5 36v401q0 27 -13.5 37 t-50.5 10q-41 0 -53 -10t-12 -37v-401z" />
<glyph unicode="&#xbb;" horiz-adv-x="860" d="M92 168v45l332 391v31l-332 373v45l365 -410v-45zM403 168v45l332 391v31l-332 373v45l365 -410v-45z" />
<glyph unicode="&#xbc;" horiz-adv-x="956" d="M174 897v29h74v407h-10l-45 -45l-19 21l129 125h74v-508h72v-29h-275zM184 0l559 1434h35l-561 -1434h-33zM451 125v45l213 369h116v-385h74v-29h-74v-96h74v-29h-276v29h73v96h-200zM483 154h168v284h-10l-158 -272v-12z" />
<glyph unicode="&#xbd;" horiz-adv-x="1001" d="M174 897v29h74v407h-10l-45 -45l-19 21l129 125h74v-508h72v-29h-275zM184 0l559 1434h35l-561 -1434h-33zM526 0v37l211 307q16 29 22.5 51.5t6.5 50.5v15q0 35 -10.5 47t-44.5 12q-18 0 -32.5 -1t-25.5 -3l-24 -117h-76v138q25 2 49 6q23 2 49.5 4t53.5 2 q117 0 154.5 -24.5t37.5 -69.5v-21q0 -47 -15.5 -71.5t-52.5 -55.5l-213 -178l-14 -25h297v-104h-373z" />
<glyph unicode="&#xbe;" horiz-adv-x="964" d="M102 1004v45h31v-43q0 -45 23.5 -69t95.5 -24q31 0 49 10.5t18 34.5v148q0 39 -15 48t-44 9h-35v29h47q23 2 33 18.5t10 32.5v109q0 39 -10 52t-45 13h-29q-12 0 -22 -2l-29 -123h-78v138l50 8q23 4 48 6t52 2q59 0 98 -6t60.5 -18.5t30 -31t8.5 -40.5v-39 q0 -41 -9.5 -62.5t-54.5 -42.5l-23 -10v-8q49 -8 70 -33t21 -68v-102q0 -55 -49.5 -77.5t-151.5 -22.5q-90 0 -120 34t-30 85zM193 0l559 1434h34l-561 -1434h-32zM459 125v45l213 369h116v-385h74v-29h-74v-96h74v-29h-276v29h73v96h-200zM492 154h167v284h-10l-157 -272 v-12z" />
<glyph unicode="&#xbf;" horiz-adv-x="1079" d="M164 74q0 68 26.5 126t74.5 111.5t116 103.5t149 103q55 35 91 66.5t57.5 65.5t30 73t8.5 90h33q0 -57 -6.5 -105.5t-27 -95.5t-56 -98t-95.5 -115q-39 -43 -62.5 -84t-36.5 -86t-17.5 -98t-4.5 -121q0 -100 26 -154.5t108 -54.5q47 0 84.5 5.5t66.5 11.5l80 344h156 v-334q-55 -16 -117 -29q-53 -10 -117.5 -18t-132.5 -8q-121 0 -203 17t-134 53t-74.5 93.5t-22.5 137.5zM610 1112q0 51 35 85t86 34t85 -34t34 -85t-34 -86t-85 -35t-86 35t-35 86z" />
<glyph unicode="&#xc0;" horiz-adv-x="1126" d="M-79 0v29h157l260 1405h406l266 -1405h139v-29h-620v29h145l-88 491h-385l-90 -491h133v-29h-323zM207 549h373l-156 856h-61zM260 1622v27h287l94 -86v-27h-286z" />
<glyph unicode="&#xc1;" horiz-adv-x="1126" d="M-79 0v29h157l260 1405h406l266 -1405h139v-29h-620v29h145l-88 491h-385l-90 -491h133v-29h-323zM207 549h373l-156 856h-61zM450 1536v27l95 86h286v-27l-94 -86h-287z" />
<glyph unicode="&#xc2;" horiz-adv-x="1126" d="M-79 0v29h157l260 1405h406l266 -1405h139v-29h-620v29h145l-88 491h-385l-90 -491h133v-29h-323zM207 549h373l-156 856h-61zM207 1536v27l94 86h467l95 -86v-27h-217l-93 84h-39l-90 -84h-217z" />
<glyph unicode="&#xc3;" horiz-adv-x="1126" d="M-79 0v29h157l260 1405h406l266 -1405h139v-29h-620v29h145l-88 491h-385l-90 -491h133v-29h-323zM207 549h373l-156 856h-61zM230 1536v27l94 86h196l90 -84h11l92 84h162v-27l-95 -86h-194l-92 84h-19l-90 -84h-155z" />
<glyph unicode="&#xc4;" horiz-adv-x="1126" d="M-79 0v29h157l260 1405h406l266 -1405h139v-29h-620v29h145l-88 491h-385l-90 -491h133v-29h-323zM207 549h373l-156 856h-61zM266 1536v113h225v-113h-225zM614 1536v113h225v-113h-225z" />
<glyph unicode="&#xc5;" horiz-adv-x="1126" d="M-79 0v29h157l260 1405h406l266 -1405h139v-29h-620v29h145l-88 491h-385l-90 -491h133v-29h-323zM207 549h373l-156 856h-61zM326 1616v10v13q0 47 21.5 64.5t72.5 17.5h234q49 0 70.5 -17.5t21.5 -64.5v-23q0 -47 -21.5 -63.5t-70.5 -16.5h-234q-51 0 -72.5 16.5 t-21.5 63.5zM455 1600q0 -18 6 -26.5t25 -8.5h102q18 0 24.5 8t6.5 27v26v31q0 18 -6 26.5t-25 8.5h-102q-18 0 -24.5 -8t-6.5 -27v-57z" />
<glyph unicode="&#xc6;" horiz-adv-x="1566" d="M-61 0v29h157l322 1405h1073v-439h-197l-92 410h-241v-645h268v-29h-268v-702h241l113 475h176v-504h-1004v29h158v491h-403l-111 -491h131v-29h-323zM248 549h397v856h-203z" />
<glyph unicode="&#xc7;" horiz-adv-x="1017" d="M102 207v1020q0 45 14.5 85t62.5 69.5t137.5 47t236.5 17.5q68 0 138.5 -6t129.5 -13l135 -16v-416h-196l-94 414q-47 8 -121 8t-100.5 -22.5t-26.5 -69.5v-1216q0 -47 26.5 -70t106.5 -23q104 0 175 19.5t112 56.5t58 89t17 118v195h33v-199q0 -66 -17.5 -122t-62.5 -97 t-121.5 -64.5t-193.5 -23.5q-145 0 -233.5 17.5t-136.5 47t-63.5 69.5t-15.5 85zM433 -215l8 29h53q18 0 29.5 12t11.5 47t-11.5 45t-29.5 10h-20l20 72h31l-13 -43h101q45 0 72.5 -14.5t27.5 -53.5v-32q0 -39 -27.5 -55.5t-72.5 -16.5h-180z" />
<glyph unicode="&#xc8;" horiz-adv-x="1150" d="M41 0v29h162v1376h-162v29h1008v-439h-197l-92 410h-242v-645h268v-29h-268v-702h242l92 454h197v-483h-1008zM362 1622v27h287l94 -86v-27h-286z" />
<glyph unicode="&#xc9;" horiz-adv-x="1150" d="M41 0v29h162v1376h-162v29h1008v-439h-197l-92 410h-242v-645h268v-29h-268v-702h242l92 454h197v-483h-1008zM518 1536v27l95 86h286v-27l-94 -86h-287z" />
<glyph unicode="&#xca;" horiz-adv-x="1150" d="M41 0v29h162v1376h-162v29h1008v-439h-197l-92 410h-242v-645h268v-29h-268v-702h242l92 454h197v-483h-1008zM288 1536v27l94 86h467l95 -86v-27h-217l-93 84h-39l-90 -84h-217z" />
<glyph unicode="&#xcb;" horiz-adv-x="1150" d="M41 0v29h162v1376h-162v29h1008v-439h-197l-92 410h-242v-645h268v-29h-268v-702h242l92 454h197v-483h-1008zM330 1536v113h225v-113h-225zM678 1536v113h225v-113h-225z" />
<glyph unicode="&#xcc;" horiz-adv-x="720" d="M41 0v29h162v1376h-162v29h639v-29h-162v-1376h162v-29h-639zM141 1622v27h287l94 -86v-27h-286z" />
<glyph unicode="&#xcd;" horiz-adv-x="720" d="M41 0v29h162v1376h-162v29h639v-29h-162v-1376h162v-29h-639zM202 1536v27l95 86h286v-27l-94 -86h-287z" />
<glyph unicode="&#xce;" horiz-adv-x="720" d="M41 0v29h162v1376h-162v29h639v-29h-162v-1376h162v-29h-639zM35 1536v27l94 86h467l95 -86v-27h-217l-93 84h-39l-90 -84h-217z" />
<glyph unicode="&#xcf;" horiz-adv-x="720" d="M41 0v29h162v1376h-162v29h639v-29h-162v-1376h162v-29h-639zM76 1536v113h225v-113h-225zM424 1536v113h225v-113h-225z" />
<glyph unicode="&#xd0;" horiz-adv-x="1226" d="M41 0v29h162v-29h-162zM41 729v29h162v647h-162v29h819q135 0 199.5 -76t64.5 -197v-889q0 -123 -64.5 -197.5t-199.5 -74.5h-657v729h-162zM518 29h174q66 0 91.5 24.5t25.5 87.5v1153q0 61 -25.5 86t-91.5 25h-174v-647h158v-29h-158v-700z" />
<glyph unicode="&#xd1;" horiz-adv-x="1177" d="M0 0v29h162v1376h-162v29h563l365 -1405h55v1376h-141v29h336v-29h-162v-1405h-404l-358 1405h-59v-1376h141v-29h-336zM254 1562v27l94 86h196l90 -84h11l92 84h162v-27l-95 -86h-194l-92 84h-19l-90 -84h-155z" />
<glyph unicode="&#xd2;" horiz-adv-x="1167" d="M102 231v973q0 53 18.5 97.5t72 77t146.5 50t245 17.5q150 0 244 -17.5t147 -50t71.5 -77t18.5 -97.5v-973q0 -53 -18.5 -98t-71.5 -76.5t-147.5 -50t-243.5 -18.5q-152 0 -245 18.5t-146.5 50t-72 76.5t-18.5 98zM418 131q0 -66 31.5 -90.5t134.5 -24.5q51 0 82.5 6.5 t50 19.5t25 35.5t6.5 53.5v1172q0 59 -30 86.5t-134 27.5t-135 -27.5t-31 -86.5v-1172zM358 1622v27h287l94 -86v-27h-286z" />
<glyph unicode="&#xd3;" horiz-adv-x="1167" d="M102 231v973q0 53 18.5 97.5t72 77t146.5 50t245 17.5q150 0 244 -17.5t147 -50t71.5 -77t18.5 -97.5v-973q0 -53 -18.5 -98t-71.5 -76.5t-147.5 -50t-243.5 -18.5q-152 0 -245 18.5t-146.5 50t-72 76.5t-18.5 98zM418 131q0 -66 31.5 -90.5t134.5 -24.5q51 0 82.5 6.5 t50 19.5t25 35.5t6.5 53.5v1172q0 59 -30 86.5t-134 27.5t-135 -27.5t-31 -86.5v-1172zM419 1536v27l95 86h286v-27l-94 -86h-287z" />
<glyph unicode="&#xd4;" horiz-adv-x="1167" d="M102 231v973q0 53 18.5 97.5t72 77t146.5 50t245 17.5q150 0 244 -17.5t147 -50t71.5 -77t18.5 -97.5v-973q0 -53 -18.5 -98t-71.5 -76.5t-147.5 -50t-243.5 -18.5q-152 0 -245 18.5t-146.5 50t-72 76.5t-18.5 98zM418 131q0 -66 31.5 -90.5t134.5 -24.5q51 0 82.5 6.5 t50 19.5t25 35.5t6.5 53.5v1172q0 59 -30 86.5t-134 27.5t-135 -27.5t-31 -86.5v-1172zM256 1536v27l94 86h467l95 -86v-27h-217l-93 84h-39l-90 -84h-217z" />
<glyph unicode="&#xd5;" horiz-adv-x="1167" d="M102 231v973q0 53 18.5 97.5t72 77t146.5 50t245 17.5q150 0 244 -17.5t147 -50t71.5 -77t18.5 -97.5v-973q0 -53 -18.5 -98t-71.5 -76.5t-147.5 -50t-243.5 -18.5q-152 0 -245 18.5t-146.5 50t-72 76.5t-18.5 98zM418 131q0 -66 31.5 -90.5t134.5 -24.5q51 0 82.5 6.5 t50 19.5t25 35.5t6.5 53.5v1172q0 59 -30 86.5t-134 27.5t-135 -27.5t-31 -86.5v-1172zM261 1536v27l94 86h196l90 -84h11l92 84h162v-27l-95 -86h-194l-92 84h-19l-90 -84h-155z" />
<glyph unicode="&#xd6;" horiz-adv-x="1167" d="M102 231v973q0 53 18.5 97.5t72 77t146.5 50t245 17.5q150 0 244 -17.5t147 -50t71.5 -77t18.5 -97.5v-973q0 -53 -18.5 -98t-71.5 -76.5t-147.5 -50t-243.5 -18.5q-152 0 -245 18.5t-146.5 50t-72 76.5t-18.5 98zM418 131q0 -66 31.5 -90.5t134.5 -24.5q51 0 82.5 6.5 t50 19.5t25 35.5t6.5 53.5v1172q0 59 -30 86.5t-134 27.5t-135 -27.5t-31 -86.5v-1172zM297 1562v113h225v-113h-225zM645 1562v113h225v-113h-225z" />
<glyph unicode="&#xd7;" d="M176 850l23 22l221 -221l221 221l23 -22l-222 -221l220 -219l-23 -23l-219 219l-219 -219l-23 23l219 219z" />
<glyph unicode="&#xd8;" horiz-adv-x="1167" d="M102 231v973q0 53 18.5 97.5t72 77t146.5 50t245 17.5q150 0 244 -17.5t147 -50t71.5 -77t18.5 -97.5v-973q0 -53 -18.5 -98t-71.5 -76.5t-147.5 -50t-243.5 -18.5q-152 0 -245 18.5t-146.5 50t-72 76.5t-18.5 98zM418 131q0 -66 31.5 -90.5t134.5 -24.5q51 0 82.5 6.5 t50 19.5t25 35.5t6.5 53.5v913l-330 -847v-66zM418 297l330 852v154q0 59 -30 86.5t-134 27.5t-135 -27.5t-31 -86.5v-1006z" />
<glyph unicode="&#xd9;" horiz-adv-x="1116" d="M20 1405v29h619v-29h-143v-1253q0 -29 7 -53.5t26.5 -43t54 -29t90.5 -10.5q152 0 224.5 57.5t72.5 180.5v1151h-144v29h330v-29h-153v-1133q0 -68 -15.5 -120t-53.5 -88.5t-101.5 -56t-159.5 -19.5q-154 0 -250 18.5t-150.5 50t-74 76.5t-19.5 98v1174h-160zM366 1622 v27h287l94 -86v-27h-286z" />
<glyph unicode="&#xda;" horiz-adv-x="1116" d="M20 1405v29h619v-29h-143v-1253q0 -29 7 -53.5t26.5 -43t54 -29t90.5 -10.5q152 0 224.5 57.5t72.5 180.5v1151h-144v29h330v-29h-153v-1133q0 -68 -15.5 -120t-53.5 -88.5t-101.5 -56t-159.5 -19.5q-154 0 -250 18.5t-150.5 50t-74 76.5t-19.5 98v1174h-160zM489 1536 v27l95 86h286v-27l-94 -86h-287z" />
<glyph unicode="&#xdb;" horiz-adv-x="1116" d="M20 1405v29h619v-29h-143v-1253q0 -29 7 -53.5t26.5 -43t54 -29t90.5 -10.5q152 0 224.5 57.5t72.5 180.5v1151h-144v29h330v-29h-153v-1133q0 -68 -15.5 -120t-53.5 -88.5t-101.5 -56t-159.5 -19.5q-154 0 -250 18.5t-150.5 50t-74 76.5t-19.5 98v1174h-160zM270 1536 v27l94 86h467l95 -86v-27h-217l-93 84h-39l-90 -84h-217z" />
<glyph unicode="&#xdc;" horiz-adv-x="1116" d="M20 1405v29h619v-29h-143v-1253q0 -29 7 -53.5t26.5 -43t54 -29t90.5 -10.5q152 0 224.5 57.5t72.5 180.5v1151h-144v29h330v-29h-153v-1133q0 -68 -15.5 -120t-53.5 -88.5t-101.5 -56t-159.5 -19.5q-154 0 -250 18.5t-150.5 50t-74 76.5t-19.5 98v1174h-160zM332 1536 v113h225v-113h-225zM680 1536v113h225v-113h-225z" />
<glyph unicode="&#xdd;" horiz-adv-x="1087" d="M-41 1405v29h637v-29h-139l245 -660h29l232 660h-132v29h318v-29h-150l-251 -721v-655h161v-29h-639v29h162v546l-311 830h-162zM454 1536v27l95 86h286v-27l-94 -86h-287z" />
<glyph unicode="&#xde;" horiz-adv-x="1193" d="M41 0v29h162v1376h-162v29h680v-29h-203v-275h330q123 0 193.5 -51t70.5 -174v-303q0 -113 -68.5 -184.5t-179.5 -71.5h-346v-317h203v-29h-680zM518 375h156q47 0 83 19.5t36 82.5v527q0 31 -11.5 50t-30 30.5t-42 14.5t-47.5 3h-144v-727z" />
<glyph unicode="&#xdf;" horiz-adv-x="1382" d="M20 1057v28h142v-28h-142zM47 -199q68 27 91.5 75t23.5 122v1145q0 88 39 147.5t105.5 93t154.5 48t184 14.5q121 0 193.5 -12.5t110.5 -34t50.5 -52t12.5 -67.5q0 -31 -2 -52.5t-11.5 -39t-28 -33.5t-48.5 -35q-35 -20 -52.5 -35.5t-26.5 -34t-10.5 -46t-1.5 -72.5 q0 -37 6.5 -62.5t18.5 -46t31.5 -39t48.5 -39.5l256 -192q29 -23 56.5 -46.5t48 -57t32.5 -79.5t12 -110q0 -92 -17 -146.5t-62 -82t-123 -35.5t-199 -8q-66 0 -128 6t-112 14q-57 8 -110 23v313h162l69 -319q23 -4 58.5 -6.5t62.5 -2.5q55 0 86 6.5t46.5 22.5t19.5 42t4 67 q0 37 -8.5 63.5t-21.5 47t-32.5 37.5t-44.5 36l-233 188q-33 27 -63.5 53.5t-55.5 59.5t-39 74t-14 96q0 59 9 97t33.5 68t67.5 56.5t111 61.5l115 61q43 27 51 55.5t8 67.5q0 35 -11.5 61.5t-47 44t-102 26.5t-175.5 9q-63 0 -101 -19.5t-59.5 -49t-28.5 -66.5t-7 -74 v-1114q0 -86 -44.5 -144.5t-106.5 -95t-131 -55t-120 -26.5v28z" />
<glyph unicode="&#xe0;" horiz-adv-x="1046" d="M82 225v111q0 70 31.5 115t111.5 86l391 200v240q0 49 -21.5 70.5t-96.5 21.5q-37 0 -69 -2t-60 -6l-60 -289h-166v289q55 10 115 18q51 6 114.5 12.5t125.5 6.5q127 0 206.5 -13.5t123.5 -39t60.5 -65.5t16.5 -91v-860h142v-29h-426v55h-13q-47 -39 -96 -53t-131 -14 q-160 0 -229.5 59t-69.5 178zM369 127q0 -53 20.5 -78.5t75.5 -25.5q35 0 76 20t75 63v596l-151 -79q-61 -35 -78.5 -82t-17.5 -111v-303zM231 1294v27h287l94 -86v-27h-286z" />
<glyph unicode="&#xe1;" horiz-adv-x="1046" d="M82 225v111q0 70 31.5 115t111.5 86l391 200v240q0 49 -21.5 70.5t-96.5 21.5q-37 0 -69 -2t-60 -6l-60 -289h-166v289q55 10 115 18q51 6 114.5 12.5t125.5 6.5q127 0 206.5 -13.5t123.5 -39t60.5 -65.5t16.5 -91v-860h142v-29h-426v55h-13q-47 -39 -96 -53t-131 -14 q-160 0 -229.5 59t-69.5 178zM369 127q0 -53 20.5 -78.5t75.5 -25.5q35 0 76 20t75 63v596l-151 -79q-61 -35 -78.5 -82t-17.5 -111v-303zM393 1208v27l95 86h286v-27l-94 -86h-287z" />
<glyph unicode="&#xe2;" horiz-adv-x="1046" d="M82 225v111q0 70 31.5 115t111.5 86l391 200v240q0 49 -21.5 70.5t-96.5 21.5q-37 0 -69 -2t-60 -6l-60 -289h-166v289q55 10 115 18q51 6 114.5 12.5t125.5 6.5q127 0 206.5 -13.5t123.5 -39t60.5 -65.5t16.5 -91v-860h142v-29h-426v55h-13q-47 -39 -96 -53t-131 -14 q-160 0 -229.5 59t-69.5 178zM369 127q0 -53 20.5 -78.5t75.5 -25.5q35 0 76 20t75 63v596l-151 -79q-61 -35 -78.5 -82t-17.5 -111v-303zM198 1208v27l94 86h467l95 -86v-27h-217l-93 84h-39l-90 -84h-217z" />
<glyph unicode="&#xe3;" horiz-adv-x="1046" d="M82 225v111q0 70 31.5 115t111.5 86l391 200v240q0 49 -21.5 70.5t-96.5 21.5q-37 0 -69 -2t-60 -6l-60 -289h-166v289q55 10 115 18q51 6 114.5 12.5t125.5 6.5q127 0 206.5 -13.5t123.5 -39t60.5 -65.5t16.5 -91v-860h142v-29h-426v55h-13q-47 -39 -96 -53t-131 -14 q-160 0 -229.5 59t-69.5 178zM369 127q0 -53 20.5 -78.5t75.5 -25.5q35 0 76 20t75 63v596l-151 -79q-61 -35 -78.5 -82t-17.5 -111v-303zM201 1208v27l94 86h196l90 -84h11l92 84h162v-27l-95 -86h-194l-92 84h-19l-90 -84h-155z" />
<glyph unicode="&#xe4;" horiz-adv-x="1046" d="M82 225v111q0 70 31.5 115t111.5 86l391 200v240q0 49 -21.5 70.5t-96.5 21.5q-37 0 -69 -2t-60 -6l-60 -289h-166v289q55 10 115 18q51 6 114.5 12.5t125.5 6.5q127 0 206.5 -13.5t123.5 -39t60.5 -65.5t16.5 -91v-860h142v-29h-426v55h-13q-47 -39 -96 -53t-131 -14 q-160 0 -229.5 59t-69.5 178zM369 127q0 -53 20.5 -78.5t75.5 -25.5q35 0 76 20t75 63v596l-151 -79q-61 -35 -78.5 -82t-17.5 -111v-303zM236 1208v113h225v-113h-225zM584 1208v113h225v-113h-225z" />
<glyph unicode="&#xe5;" horiz-adv-x="1046" d="M82 225v111q0 70 31.5 115t111.5 86l391 200v240q0 49 -21.5 70.5t-96.5 21.5q-37 0 -69 -2t-60 -6l-60 -289h-166v289q55 10 115 18q51 6 114.5 12.5t125.5 6.5q127 0 206.5 -13.5t123.5 -39t60.5 -65.5t16.5 -91v-860h142v-29h-426v55h-13q-47 -39 -96 -53t-131 -14 q-160 0 -229.5 59t-69.5 178zM369 127q0 -53 20.5 -78.5t75.5 -25.5q35 0 76 20t75 63v596l-151 -79q-61 -35 -78.5 -82t-17.5 -111v-303zM313 1288v10v13q0 47 21.5 64.5t72.5 17.5h234q49 0 70.5 -17.5t21.5 -64.5v-23q0 -47 -21.5 -63.5t-70.5 -16.5h-234 q-51 0 -72.5 16.5t-21.5 63.5zM442 1272q0 -18 6 -26.5t25 -8.5h102q18 0 24.5 8t6.5 27v26v31q0 18 -6 26.5t-25 8.5h-102q-18 0 -24.5 -8t-6.5 -27v-57z" />
<glyph unicode="&#xe6;" horiz-adv-x="1492" d="M82 225v111q0 70 31.5 115t111.5 86l391 200v219q0 49 -21.5 81t-96.5 32q-37 0 -69 -3t-60 -7l-60 -287h-166v289q55 10 115 18q51 6 114.5 12.5t125.5 6.5q86 0 148.5 -19.5t107.5 -52.5q45 33 107.5 52.5t148.5 19.5q119 0 196.5 -13.5t123.5 -39t63.5 -65.5t17.5 -91 v-318h-514v-475q4 -39 35 -59.5t119 -20.5q150 0 228.5 51.5t78.5 168.5v114h33v-119q0 -129 -91.5 -186t-248.5 -57q-96 0 -165 7t-116 20.5t-76.5 32t-46.5 40.5q-27 -29 -50.5 -47t-53 -30.5t-67.5 -17.5t-95 -5q-160 0 -229.5 59t-69.5 178zM369 131q0 -55 20.5 -81.5 t75.5 -26.5q59 0 99 33.5t65 66.5q-8 23 -10.5 45t-2.5 49v483l-151 -79q-61 -35 -78.5 -82t-17.5 -111v-297zM897 600h225v377q0 49 -18.5 70.5t-93.5 21.5q-39 0 -61.5 -5t-34 -16.5t-14.5 -29t-3 -41.5v-377z" />
<glyph unicode="&#xe7;" horiz-adv-x="886" d="M102 217v672q0 51 16.5 91t60.5 65.5t124 39t207 13.5q61 0 118 -5l101 -10q51 -6 96 -12v-299h-166l-61 293q-20 2 -40.5 3t-47.5 1q-39 0 -62.5 -5t-36 -16.5t-16.5 -29t-4 -41.5v-848q0 -53 24.5 -83t108.5 -30q82 0 134.5 17.5t82 45t41 63.5t11.5 73v135h30v-139 q0 -43 -14 -84t-49 -71.5t-92.5 -49t-143.5 -18.5q-141 0 -225 17.5t-128 48t-56.5 72.5t-12.5 91zM351 -215l8 29h53q18 0 29.5 12t11.5 47t-11.5 45t-29.5 10h-20l20 72h31l-13 -43h101q45 0 72.5 -14.5t27.5 -53.5v-32q0 -39 -27.5 -55.5t-72.5 -16.5h-180z" />
<glyph unicode="&#xe8;" horiz-adv-x="987" d="M102 217v672q0 51 17.5 91t63.5 65.5t123 39t198 13.5q119 0 196.5 -13.5t123.5 -39t63.5 -65.5t17.5 -91v-318h-514v-444q0 -27 5 -47.5t20.5 -34.5t46.5 -21.5t82 -7.5q150 0 229.5 51.5t79.5 168.5v114h31v-119q0 -129 -91.5 -186t-248.5 -57q-150 0 -237 17.5 t-133 48t-59.5 72.5t-13.5 91zM391 600h225v377q0 49 -18 70.5t-94 21.5q-39 0 -61.5 -5t-34 -16.5t-14.5 -29t-3 -41.5v-377zM237 1294v27h287l94 -86v-27h-286z" />
<glyph unicode="&#xe9;" horiz-adv-x="987" d="M102 217v672q0 51 17.5 91t63.5 65.5t123 39t198 13.5q119 0 196.5 -13.5t123.5 -39t63.5 -65.5t17.5 -91v-318h-514v-444q0 -27 5 -47.5t20.5 -34.5t46.5 -21.5t82 -7.5q150 0 229.5 51.5t79.5 168.5v114h31v-119q0 -129 -91.5 -186t-248.5 -57q-150 0 -237 17.5 t-133 48t-59.5 72.5t-13.5 91zM391 600h225v377q0 49 -18 70.5t-94 21.5q-39 0 -61.5 -5t-34 -16.5t-14.5 -29t-3 -41.5v-377zM381 1208v27l95 86h286v-27l-94 -86h-287z" />
<glyph unicode="&#xea;" horiz-adv-x="987" d="M102 217v672q0 51 17.5 91t63.5 65.5t123 39t198 13.5q119 0 196.5 -13.5t123.5 -39t63.5 -65.5t17.5 -91v-318h-514v-444q0 -27 5 -47.5t20.5 -34.5t46.5 -21.5t82 -7.5q150 0 229.5 51.5t79.5 168.5v114h31v-119q0 -129 -91.5 -186t-248.5 -57q-150 0 -237 17.5 t-133 48t-59.5 72.5t-13.5 91zM391 600h225v377q0 49 -18 70.5t-94 21.5q-39 0 -61.5 -5t-34 -16.5t-14.5 -29t-3 -41.5v-377zM168 1208v27l94 86h467l95 -86v-27h-217l-93 84h-39l-90 -84h-217z" />
<glyph unicode="&#xeb;" horiz-adv-x="987" d="M102 217v672q0 51 17.5 91t63.5 65.5t123 39t198 13.5q119 0 196.5 -13.5t123.5 -39t63.5 -65.5t17.5 -91v-318h-514v-444q0 -27 5 -47.5t20.5 -34.5t46.5 -21.5t82 -7.5q150 0 229.5 51.5t79.5 168.5v114h31v-119q0 -129 -91.5 -186t-248.5 -57q-150 0 -237 17.5 t-133 48t-59.5 72.5t-13.5 91zM391 600h225v377q0 49 -18 70.5t-94 21.5q-39 0 -61.5 -5t-34 -16.5t-14.5 -29t-3 -41.5v-377zM207 1208v113h225v-113h-225zM555 1208v113h225v-113h-225z" />
<glyph unicode="&#xec;" horiz-adv-x="569" d="M0 0v29h141v-29h-141zM0 1057v28h428v-1056h141v-29h-428v1057h-141zM49 1294v27h287l94 -86v-27h-286z" />
<glyph unicode="&#xed;" horiz-adv-x="569" d="M137 1208v27l95 86h286v-27l-94 -86h-287zM0 0v29h141v-29h-141zM0 1057v28h428v-1056h141v-29h-428v1057h-141z" />
<glyph unicode="&#xee;" horiz-adv-x="569" d="M0 0v29h141v-29h-141zM0 1057v28h428v-1056h141v-29h-428v1057h-141zM-41 1208v27l94 86h467l95 -86v-27h-217l-93 84h-39l-90 -84h-217z" />
<glyph unicode="&#xef;" horiz-adv-x="569" d="M0 0v29h141v-29h-141zM0 1057v28h428v-1056h141v-29h-428v1057h-141zM0 1208v113h225v-113h-225zM348 1208v113h225v-113h-225z" />
<glyph unicode="&#xf0;" horiz-adv-x="1077" d="M102 211v358q0 53 14.5 97.5t54.5 77t109.5 50t182.5 17.5q47 0 81 -7t58 -22l21 9l-121 309l-174 -86l-13 26l177 86l-117 308h41l192 -250l199 98l12 -27l-192 -94l151 -194q51 -66 88 -124.5t61.5 -116.5t36 -120.5t11.5 -132.5v-262q0 -53 -15.5 -98t-61.5 -77 t-132 -50.5t-227 -18.5t-227.5 18.5t-132.5 50.5t-61.5 77t-15.5 98zM399 90q0 -53 30 -73.5t110 -20.5t110.5 17.5t30.5 76.5v490q-4 92 -55.5 145t-122.5 53q-59 0 -81 -19.5t-22 -70.5v-598z" />
<glyph unicode="&#xf1;" horiz-adv-x="1120" d="M0 0v29h141v1028h-141v28h424v-55h12q70 41 129.5 54.5t143.5 13.5q86 0 138 -16.5t81.5 -45t40 -66.5t10.5 -81v-860h141v-29h-430v979q0 41 -15.5 61.5t-53.5 20.5q-47 0 -95.5 -19.5t-97.5 -62.5v-950h141v-29h-569zM238 1208v27l94 86h196l90 -84h11l92 84h162v-27 l-95 -86h-194l-92 84h-19l-90 -84h-155z" />
<glyph unicode="&#xf2;" horiz-adv-x="1060" d="M102 217v653q0 51 15.5 93.5t61.5 72t130 46t221 16.5t221.5 -16.5t130.5 -46t61 -71.5t15 -94v-653q0 -51 -15 -93t-61 -73t-130 -47t-222 -16q-137 0 -221 16t-130 47t-61.5 73t-15.5 93zM389 104q0 -51 27.5 -69.5t113.5 -18.5q84 0 112 18.5t28 69.5v873 q0 49 -28 70.5t-112 21.5q-86 0 -113.5 -21.5t-27.5 -70.5v-873zM288 1294v27h287l94 -86v-27h-286z" />
<glyph unicode="&#xf3;" horiz-adv-x="1060" d="M102 217v653q0 51 15.5 93.5t61.5 72t130 46t221 16.5t221.5 -16.5t130.5 -46t61 -71.5t15 -94v-653q0 -51 -15 -93t-61 -73t-130 -47t-222 -16q-137 0 -221 16t-130 47t-61.5 73t-15.5 93zM389 104q0 -51 27.5 -69.5t113.5 -18.5q84 0 112 18.5t28 69.5v873 q0 49 -28 70.5t-112 21.5q-86 0 -113.5 -21.5t-27.5 -70.5v-873zM395 1208v27l95 86h286v-27l-94 -86h-287z" />
<glyph unicode="&#xf4;" horiz-adv-x="1060" d="M102 217v653q0 51 15.5 93.5t61.5 72t130 46t221 16.5t221.5 -16.5t130.5 -46t61 -71.5t15 -94v-653q0 -51 -15 -93t-61 -73t-130 -47t-222 -16q-137 0 -221 16t-130 47t-61.5 73t-15.5 93zM389 104q0 -51 27.5 -69.5t113.5 -18.5q84 0 112 18.5t28 69.5v873 q0 49 -28 70.5t-112 21.5q-86 0 -113.5 -21.5t-27.5 -70.5v-873zM205 1208v27l94 86h467l95 -86v-27h-217l-93 84h-39l-90 -84h-217z" />
<glyph unicode="&#xf5;" horiz-adv-x="1060" d="M102 217v653q0 51 15.5 93.5t61.5 72t130 46t221 16.5t221.5 -16.5t130.5 -46t61 -71.5t15 -94v-653q0 -51 -15 -93t-61 -73t-130 -47t-222 -16q-137 0 -221 16t-130 47t-61.5 73t-15.5 93zM389 104q0 -51 27.5 -69.5t113.5 -18.5q84 0 112 18.5t28 69.5v873 q0 49 -28 70.5t-112 21.5q-86 0 -113.5 -21.5t-27.5 -70.5v-873zM207 1208v27l94 86h196l90 -84h11l92 84h162v-27l-95 -86h-194l-92 84h-19l-90 -84h-155z" />
<glyph unicode="&#xf6;" horiz-adv-x="1060" d="M102 217v653q0 51 15.5 93.5t61.5 72t130 46t221 16.5t221.5 -16.5t130.5 -46t61 -71.5t15 -94v-653q0 -51 -15 -93t-61 -73t-130 -47t-222 -16q-137 0 -221 16t-130 47t-61.5 73t-15.5 93zM389 104q0 -51 27.5 -69.5t113.5 -18.5q84 0 112 18.5t28 69.5v873 q0 49 -28 70.5t-112 21.5q-86 0 -113.5 -21.5t-27.5 -70.5v-873zM244 1208v113h225v-113h-225zM592 1208v113h225v-113h-225z" />
<glyph unicode="&#xf7;" horiz-adv-x="389" />
<glyph unicode="&#xf8;" horiz-adv-x="1060" d="M102 217v653q0 51 15.5 93.5t61.5 72t130 46t221 16.5t221.5 -16.5t130.5 -46t61 -71.5t15 -94v-653q0 -51 -15 -93t-61 -73t-130 -47t-222 -16q-137 0 -221 16t-130 47t-61.5 73t-15.5 93zM285 61h39l430 943h-41zM389 104q0 -51 27.5 -69.5t113.5 -18.5q84 0 112 18.5 t28 69.5v873q0 49 -28 70.5t-112 21.5q-86 0 -113.5 -21.5t-27.5 -70.5v-873z" />
<glyph unicode="&#xf9;" horiz-adv-x="1107" d="M0 1057v28h430v-983q0 -29 13.5 -52t50.5 -23q47 0 92 18t94 61v951h-135v28h563v-28h-141v-1028h141v-29h-424v55h-12q-35 -20 -64.5 -33.5t-58.5 -20.5t-61.5 -10t-75.5 -3q-88 0 -141.5 16t-82 45t-38 67t-9.5 81v860h-141zM299 1294v27h287l94 -86v-27h-286z" />
<glyph unicode="&#xfa;" horiz-adv-x="1107" d="M0 1057v28h430v-983q0 -29 13.5 -52t50.5 -23q47 0 92 18t94 61v951h-135v28h563v-28h-141v-1028h141v-29h-424v55h-12q-35 -20 -64.5 -33.5t-58.5 -20.5t-61.5 -10t-75.5 -3q-88 0 -141.5 16t-82 45t-38 67t-9.5 81v860h-141zM426 1208v27l95 86h286v-27l-94 -86h-287z " />
<glyph unicode="&#xfb;" horiz-adv-x="1107" d="M0 1057v28h430v-983q0 -29 13.5 -52t50.5 -23q47 0 92 18t94 61v951h-135v28h563v-28h-141v-1028h141v-29h-424v55h-12q-35 -20 -64.5 -33.5t-58.5 -20.5t-61.5 -10t-75.5 -3q-88 0 -141.5 16t-82 45t-38 67t-9.5 81v860h-141zM225 1208v27l94 86h467l95 -86v-27h-217 l-93 84h-39l-90 -84h-217z" />
<glyph unicode="&#xfc;" horiz-adv-x="1107" d="M0 1057v28h430v-983q0 -29 13.5 -52t50.5 -23q47 0 92 18t94 61v951h-135v28h563v-28h-141v-1028h141v-29h-424v55h-12q-35 -20 -64.5 -33.5t-58.5 -20.5t-61.5 -10t-75.5 -3q-88 0 -141.5 16t-82 45t-38 67t-9.5 81v860h-141zM266 1208v113h225v-113h-225zM614 1208v113 h225v-113h-225z" />
<glyph unicode="&#xfd;" horiz-adv-x="931" d="M-41 1057v28h541v-28h-117l215 -918h18l187 918h-113v28h283v-28h-135l-217 -1057q-16 -78 -38 -121t-50.5 -63.5t-64.5 -25.5t-81 -5h-178v215h149l50 -186q37 0 64.5 6t49 27.5t39 64.5t33.5 117l16 82h-282l-236 946h-133zM356 1208v27l95 86h286v-27l-94 -86h-287z " />
<glyph unicode="&#xfe;" horiz-adv-x="1081" d="M0 -186h141v1591h-141v29h141h287v-404h8q61 43 124 55.5t149 12.5q84 0 136 -17.5t81.5 -48.5t41 -72.5t11.5 -91.5v-630q0 -49 -11.5 -95.5t-41 -80t-81.5 -54t-136 -20.5q-86 0 -151.5 13t-121.5 54h-12v-270h-424v29zM428 111q35 -43 90 -64.5t103 -21.5q70 0 69 75 v879q0 47 -17.5 64.5t-51.5 17.5q-47 0 -102.5 -21.5t-90.5 -64.5v-864z" />
<glyph unicode="&#xff;" horiz-adv-x="931" d="M-41 1057v28h541v-28h-117l215 -918h18l187 918h-113v28h283v-28h-135l-217 -1057q-16 -78 -38 -121t-50.5 -63.5t-64.5 -25.5t-81 -5h-178v215h149l50 -186q37 0 64.5 6t49 27.5t39 64.5t33.5 117l16 82h-282l-236 946h-133zM221 1208v113h225v-113h-225zM569 1208v113 h225v-113h-225z" />
<glyph unicode="&#x131;" horiz-adv-x="569" d="M0 0v29h141v-29h-141zM0 1057v28h428v-1056h141v-29h-428v1057h-141z" />
<glyph unicode="&#x152;" horiz-adv-x="1693" d="M102 244v948q0 53 18.5 97t72 77t146.5 50.5t245 17.5h1007v-439h-196l-92 410h-242v-645h268v-29h-268v-702h242l92 454h196v-483h-1007q-152 0 -245 18.5t-146.5 50t-72 77t-18.5 98.5zM418 143q0 -66 31.5 -90t134.5 -24h161v1376h-161q-104 0 -135 -27.5t-31 -87.5 v-1147z" />
<glyph unicode="&#x153;" horiz-adv-x="1546" d="M102 217v653q0 51 15.5 93.5t61.5 72t130 46t221 16.5q76 0 129.5 -12.5t90.5 -34.5q43 23 117.5 35t195.5 12q119 0 196.5 -13.5t124 -39t63.5 -65.5t17 -91v-318h-514v-444q0 -27 5.5 -47.5t20.5 -34.5t46 -21.5t82 -7.5q150 0 229.5 51.5t79.5 168.5v114h31v-119 q0 -129 -91 -186t-249 -57q-147 0 -232.5 16t-130.5 45q-35 -29 -87 -45t-124 -16q-137 0 -221 16t-130 47t-61.5 73t-15.5 93zM389 104q0 -51 27.5 -69.5t113.5 -18.5q61 0 107.5 15.5t77.5 40.5q-29 29 -37 65.5t-8 79.5v672q0 43 9 77.5t36 61.5q-29 18 -76 29.5 t-109 11.5q-86 0 -113.5 -21.5t-27.5 -70.5v-873zM950 600h226v377q0 49 -18.5 70.5t-94.5 21.5q-39 0 -61.5 -5t-34 -16.5t-14.5 -29t-3 -41.5v-377z" />
<glyph unicode="&#x178;" horiz-adv-x="1087" d="M-41 1405v29h637v-29h-139l245 -660h29l232 660h-132v29h318v-29h-150l-251 -721v-655h161v-29h-639v29h162v546l-311 830h-162zM311 1536v113h225v-113h-225zM659 1536v113h225v-113h-225z" />
<glyph unicode="&#x2c6;" horiz-adv-x="1105" d="M225 1208v27l94 86h467l95 -86v-27h-217l-93 84h-39l-90 -84h-217z" />
<glyph unicode="&#x2da;" horiz-adv-x="849" d="M215 1288v10v13q0 47 21.5 64.5t72.5 17.5h234q49 0 70.5 -17.5t21.5 -64.5v-23q0 -47 -21.5 -63.5t-70.5 -16.5h-234q-51 0 -72.5 16.5t-21.5 63.5zM344 1272q0 -18 6 -26.5t25 -8.5h102q18 0 24.5 8t6.5 27v26v31q0 18 -6 26.5t-25 8.5h-102q-18 0 -24.5 -8t-6.5 -27 v-57z" />
<glyph unicode="&#x2dc;" horiz-adv-x="1056" d="M195 1208v27l94 86h196l90 -84h11l92 84h162v-27l-95 -86h-194l-92 84h-19l-90 -84h-155z" />
<glyph unicode="&#x2000;" horiz-adv-x="860" />
<glyph unicode="&#x2001;" horiz-adv-x="1720" />
<glyph unicode="&#x2002;" horiz-adv-x="860" />
<glyph unicode="&#x2003;" horiz-adv-x="1720" />
<glyph unicode="&#x2004;" horiz-adv-x="573" />
<glyph unicode="&#x2005;" horiz-adv-x="430" />
<glyph unicode="&#x2006;" horiz-adv-x="286" />
<glyph unicode="&#x2007;" horiz-adv-x="286" />
<glyph unicode="&#x2008;" horiz-adv-x="215" />
<glyph unicode="&#x2009;" horiz-adv-x="344" />
<glyph unicode="&#x200a;" horiz-adv-x="94" />
<glyph unicode="&#x2010;" horiz-adv-x="675" d="M92 614v29h492v-29h-492z" />
<glyph unicode="&#x2011;" horiz-adv-x="675" d="M92 614v29h492v-29h-492z" />
<glyph unicode="&#x2012;" horiz-adv-x="675" d="M92 614v29h492v-29h-492z" />
<glyph unicode="&#x2013;" horiz-adv-x="655" d="M0 614v29h655v-29h-655z" />
<glyph unicode="&#x2014;" horiz-adv-x="1024" d="M0 614v29h1024v-29h-1024z" />
<glyph unicode="&#x2018;" horiz-adv-x="389" d="M72 1206v11q4 82 51 146t141 83v-33q-29 -12 -47 -36.5t-18 -61.5q51 0 84.5 -34t33.5 -85t-33.5 -86t-84.5 -35t-89 32.5t-38 98.5z" />
<glyph unicode="&#x2019;" horiz-adv-x="389" d="M76 1325q0 51 33.5 86t85.5 35q51 0 89 -33t38 -98q0 -86 -47.5 -153.5t-145.5 -86.5v33q29 12 47.5 36.5t18.5 61.5q-51 0 -85 34t-34 85z" />
<glyph unicode="&#x201a;" horiz-adv-x="354" d="M53 106q0 51 34 86t85 35t89 -32.5t38 -98.5q0 -86 -47 -153.5t-146 -85.5v32q29 12 47.5 37t18.5 62q-51 0 -85 33.5t-34 84.5z" />
<glyph unicode="&#x201c;" horiz-adv-x="702" d="M72 1206v11q4 82 51 146t141 83v-33q-29 -12 -47 -36.5t-18 -61.5q51 0 84.5 -34t33.5 -85t-33.5 -86t-84.5 -35t-89 32.5t-38 98.5zM389 1206v11q4 82 51 146t142 83v-33q-29 -12 -47.5 -36.5t-18.5 -61.5q51 0 85 -34t34 -85t-34 -86t-85 -35t-89 32.5t-38 98.5z" />
<glyph unicode="&#x201d;" horiz-adv-x="702" d="M53 1325q0 51 34 86t85 35t89 -33t38 -98q0 -86 -47 -153.5t-146 -86.5v33q29 12 47.5 36.5t18.5 61.5q-51 0 -85 34t-34 85zM371 1325q0 51 33.5 86t84.5 35t89 -33t38 -98q0 -86 -47 -153.5t-145 -86.5v33q29 12 47 36.5t18 61.5q-51 0 -84.5 34t-33.5 85z" />
<glyph unicode="&#x201e;" horiz-adv-x="702" d="M53 106q0 51 34 86t85 35t89 -32.5t38 -98.5q0 -86 -47 -153.5t-146 -85.5v32q29 12 47.5 37t18.5 62q-51 0 -85 33.5t-34 84.5zM371 106q0 51 33.5 86t84.5 35t89 -32.5t38 -98.5q0 -86 -47 -153.5t-145 -85.5v32q29 12 47 37t18 62q-51 0 -84.5 33.5t-33.5 84.5z" />
<glyph unicode="&#x2022;" horiz-adv-x="440" d="M82 625v75q0 47 21.5 69t72.5 22h90q49 0 70.5 -21.5t21.5 -69.5v-75q0 -47 -21.5 -68.5t-70.5 -21.5h-90q-51 0 -72.5 21.5t-21.5 68.5z" />
<glyph unicode="&#x2026;" horiz-adv-x="1038" d="M53 106q0 51 34 86t85 35t86 -34.5t35 -86.5q0 -51 -35 -84.5t-86 -33.5t-85 33.5t-34 84.5zM399 106q0 51 34 86t85 35t86 -34.5t35 -86.5q0 -51 -35 -84.5t-86 -33.5t-85 33.5t-34 84.5zM745 106q0 51 34 86t85 35t86 -34.5t35 -86.5q0 -51 -35 -84.5t-86 -33.5 t-85 33.5t-34 84.5z" />
<glyph unicode="&#x202f;" horiz-adv-x="344" />
<glyph unicode="&#x2039;" horiz-adv-x="548" d="M92 598v45l365 410v-45l-332 -373v-31l332 -391v-45z" />
<glyph unicode="&#x203a;" horiz-adv-x="548" d="M92 168v45l332 391v31l-332 373v45l365 -410v-45z" />
<glyph unicode="&#x205f;" horiz-adv-x="430" />
<glyph unicode="&#x20ac;" horiz-adv-x="1179" d="M41 578v28h102v254h-102v29h102v338q0 45 14.5 85t62.5 69.5t137 47t237 17.5q68 0 138.5 -6t129.5 -13l135 -16v-416h-196l-94 414q-27 4 -56.5 6t-64.5 2q-74 0 -100.5 -22.5t-26.5 -69.5v-436h237v-29h-237v-254h237v-28h-237v-469q0 -47 26.5 -70t106.5 -23 q104 0 175 19.5t112 56.5t58 89t17 118v195h33v-199q0 -66 -17.5 -122t-62.5 -97t-121.5 -64.5t-193.5 -23.5q-145 0 -233.5 17.5t-136.5 47t-63.5 69.5t-15.5 85v371h-102z" />
<glyph unicode="&#x2122;" horiz-adv-x="1337" d="M102 1270v164h463v-164h-71l-31 135h-66v-479h76v-29h-278v29h75v479h-63l-31 -135h-74zM606 897v29h62v479h-62v29h234l75 -508h15l69 508h236v-29h-61v-479h61v-29h-186v508h-21l-67 -508h-166l-78 508h-21v-479h54v-29h-144z" />
<glyph unicode="&#xe000;" horiz-adv-x="1085" d="M0 1085h1085v-1085h-1085v1085z" />
<glyph unicode="&#xfb01;" horiz-adv-x="1179" d="M610 0v29h141v1028h-141v28h428v-1056h141v-29h-569zM751 1208v113h287v-113h-287zM20 1057v28h142v27q0 92 27.5 148.5t80 90t127 51t166.5 32.5v-29q-68 -27 -91 -75t-23 -122v-123h141v-28h-141v-963q0 -86 -44.5 -144.5t-106.5 -95t-131 -55t-120 -26.5v28 q68 27 91.5 75t23.5 122v1059h-142z" />
<glyph unicode="&#xfb02;" horiz-adv-x="1179" d="M610 0v29h141v1376h-141v29h428v-1405h141v-29h-569zM20 1057v28h142v27q0 92 27.5 148.5t80 90t127 51t166.5 32.5v-29q-68 -27 -91 -75t-23 -122v-123h141v-28h-141v-963q0 -86 -44.5 -144.5t-106.5 -95t-131 -55t-120 -26.5v28q68 27 91.5 75t23.5 122v1059h-142z" />
<glyph unicode="&#xfb03;" horiz-adv-x="1789" d="M1221 0v29h141v1028h-141v28h428v-1056h141v-29h-569zM1362 1208v113h287v-113h-287zM630 1057v28h142v27q0 92 27.5 148.5t80 90t127 51t166.5 32.5v-29q-68 -27 -91 -75t-23 -122v-123h141v-28h-141v-963q0 -86 -44.5 -144.5t-106.5 -95t-131 -55t-120 -26.5v28 q68 27 91.5 75t23.5 122v1059h-142zM20 1057v28h142v27q0 92 27.5 148.5t80 90t127 51t166.5 32.5v-29q-68 -27 -91 -75t-23 -122v-123h141v-28h-141v-963q0 -86 -44.5 -144.5t-106.5 -95t-131 -55t-120 -26.5v28q68 27 91.5 75t23.5 122v1059h-142z" />
<glyph unicode="&#xfb04;" horiz-adv-x="1789" d="M1221 0v29h141v1376h-141v29h428v-1405h141v-29h-569zM630 1057v28h142v27q0 92 27.5 148.5t80 90t127 51t166.5 32.5v-29q-68 -27 -91 -75t-23 -122v-123h141v-28h-141v-963q0 -86 -44.5 -144.5t-106.5 -95t-131 -55t-120 -26.5v28q68 27 91.5 75t23.5 122v1059h-142z M20 1057v28h142v27q0 92 27.5 148.5t80 90t127 51t166.5 32.5v-29q-68 -27 -91 -75t-23 -122v-123h141v-28h-141v-963q0 -86 -44.5 -144.5t-106.5 -95t-131 -55t-120 -26.5v28q68 27 91.5 75t23.5 122v1059h-142z" />
</font>
</defs>
</svg>
